<?xml version="1.0" standalone="no"?>
<!DOCTYPE svg PUBLIC "-//W3C//DTD SVG 1.1//EN" "http://www.w3.org/Graphics/SVG/1.1/DTD/svg11.dtd" >
<svg xmlns="http://www.w3.org/2000/svg" xmlns:xlink="http://www.w3.org/1999/xlink" version="1.1">
<metadata>
Created by FontForge 20190801 at Thu Aug  2 18:01:33 2012
 By Jimmy Wärting
Copyright (c) 2010-2012 by The Entente (AS&#38;EH). Apercu Pro is a trademark of The Entente (AS&#38;EH). All rights reserved.
</metadata>
<defs>
<font id="ApercuPro-Bold" horiz-adv-x="587" >
  <font-face 
    font-family="Apercu Pro"
    font-weight="700"
    font-stretch="normal"
    units-per-em="1000"
    panose-1="2 0 8 3 4 0 0 2 0 4"
    ascent="800"
    descent="-200"
    x-height="504"
    cap-height="700"
    bbox="-75 -354 1227 1104"
    underline-thickness="50"
    underline-position="-100"
    stemh="106"
    stemv="130"
    unicode-range="U+000D-FB02"
  />
<missing-glyph horiz-adv-x="651" 
d="M90 0v700h471v-700h-471zM441 594h-231v-488h231v488z" />
    <glyph glyph-name="fi" unicode="fi" horiz-adv-x="572" 
d="M32 398v106h64v6c0 134 94 198 234 198c63 0 116 -14 145 -29l-39 -94c-32 13 -55 17 -99 17c-72 0 -117 -33 -117 -93v-5h283v-504h-124v398h-159v-398h-124v398h-64z" />
    <glyph glyph-name="fl" unicode="fl" horiz-adv-x="623" 
d="M32 398v106h64v26c0 123 70 178 174 178h277v-708h-124v602h-146c-35 0 -57 -18 -57 -63v-35h106v-106h-106v-398h-124v398h-64z" />
    <glyph glyph-name=".notdef" horiz-adv-x="651" 
d="M90 0v700h471v-700h-471zM441 594h-231v-488h231v488z" />
    <glyph glyph-name=".null" horiz-adv-x="0" 
 />
    <glyph glyph-name=".null" horiz-adv-x="0" 
 />
    <glyph glyph-name="CR" unicode="&#xd;" horiz-adv-x="248" 
 />
    <glyph glyph-name="space" unicode=" " horiz-adv-x="248" 
 />
    <glyph glyph-name="numbersign" unicode="#" horiz-adv-x="736" 
d="M105 409v98h138l40 193h100l-40 -193h114l39 193h100l-39 -193h114v-98h-134l-24 -118h118v-98h-138l-40 -193h-100l40 193h-114l-39 -193h-100l39 193h-114v98h134l24 118h-118zM323 409l-24 -118h114l24 118h-114z" />
    <glyph glyph-name="dollar" unicode="$" horiz-adv-x="537" 
d="M470 581l-105 -67c-27 52 -56 74 -97 74c-38 0 -67 -27 -67 -64c0 -122 299 -106 299 -314c0 -116 -64 -191 -164 -212v-88h-122v90c-96 23 -161 101 -179 188l105 66c21 -75 63 -142 139 -142c54 0 91 27 91 91c0 116 -293 93 -293 315c0 88 55 160 137 183v89h122v-91
c60 -17 106 -58 134 -118z" />
    <glyph glyph-name="percent" unicode="%" horiz-adv-x="838" 
d="M52 548c0 90 69 160 164 160s164 -70 164 -160s-69 -160 -164 -160s-164 70 -164 160zM154 548c0 -37 23 -65 62 -65s62 28 62 65s-23 65 -62 65s-62 -28 -62 -65zM458 152c0 90 69 160 164 160s164 -70 164 -160s-69 -160 -164 -160s-164 70 -164 160zM560 152
c0 -37 23 -65 62 -65s62 28 62 65s-23 65 -62 65s-62 -28 -62 -65zM655 738l72 -57l-538 -719l-72 58z" />
    <glyph glyph-name="ampersand" unicode="&#x26;" horiz-adv-x="696" 
d="M288 -8c-125 0 -222 79 -222 214c0 105 64 177 133 216c-28 39 -48 88 -48 137c0 82 63 149 163 149c104 0 162 -69 162 -140c0 -84 -54 -146 -114 -178l115 -151c19 36 34 72 51 126l72 -84c-11 -47 -28 -94 -52 -135l112 -146h-147l-41 54c-48 -38 -109 -62 -184 -62z
M289 107c50 0 82 13 114 39l-141 188c-48 -29 -76 -75 -76 -126c0 -56 40 -101 103 -101zM314 602c-31 0 -53 -20 -53 -51c0 -30 13 -53 32 -77c31 14 71 39 71 81c0 28 -20 47 -50 47z" />
    <glyph glyph-name="quotesingle" unicode="'" horiz-adv-x="301" 
d="M111 459l-31 249h141l-31 -249h-79z" />
    <glyph glyph-name="parenleft" unicode="(" horiz-adv-x="300" 
d="M169 750h107c-59 -108 -92 -223 -92 -400c0 -187 33 -292 92 -400h-107c-53 96 -105 200 -105 400s52 304 105 400z" />
    <glyph glyph-name="parenright" unicode=")" horiz-adv-x="300" 
d="M24 750h107c53 -96 105 -200 105 -400s-52 -304 -105 -400h-107c59 108 92 213 92 400c0 177 -33 292 -92 400z" />
    <glyph glyph-name="asterisk" unicode="*" horiz-adv-x="486" 
d="M294 708v-113l109 36l33 -99l-109 -37l67 -91l-85 -63l-66 93l-66 -93l-85 63l67 91l-109 37l33 99l109 -36v113h102z" />
    <glyph glyph-name="plus" unicode="+" horiz-adv-x="584" 
d="M239 555h108v-184h184v-108h-184v-184h-108v184h-184v108h184v184z" />
    <glyph glyph-name="comma" unicode="," horiz-adv-x="363" 
d="M57 -156l75 302h167l-155 -302h-87z" />
    <glyph glyph-name="hyphen" unicode="-" horiz-adv-x="503" 
d="M65 263v108h373v-108h-373z" />
    <glyph glyph-name="period" unicode="." horiz-adv-x="328" 
d="M80 78c0 48 36 84 84 84s84 -36 84 -84s-36 -84 -84 -84s-84 36 -84 84z" />
    <glyph glyph-name="slash" unicode="/" horiz-adv-x="550" 
d="M444 750h120l-436 -800h-120z" />
    <glyph glyph-name="zero" unicode="0" horiz-adv-x="640" 
d="M320 708c167 0 258 -134 258 -358s-91 -358 -258 -358s-258 134 -258 358s91 358 258 358zM320 592c-92 0 -134 -86 -134 -242s42 -242 134 -242s134 86 134 242s-42 242 -134 242z" />
    <glyph glyph-name="one" unicode="1" horiz-adv-x="414" 
d="M273 700h55v-700h-126v524l-134 -80v136z" />
    <glyph glyph-name="two" unicode="2" horiz-adv-x="579" 
d="M64 0v50l250 323c42 53 54 87 54 127c0 57 -29 92 -86 92c-50 0 -83 -33 -91 -92l-116 22c7 106 93 186 210 186c133 0 209 -85 209 -203c0 -56 -18 -111 -60 -166l-171 -223h246v-116h-445z" />
    <glyph glyph-name="three" unicode="3" horiz-adv-x="589" 
d="M56 194l121 16c15 -62 50 -102 113 -102c65 0 111 45 111 117c0 81 -47 123 -110 123c-22 0 -40 -4 -61 -15l-50 70l132 181h-223v116h401v-44l-165 -223c9 1 16 2 28 2c108 0 174 -85 174 -208c0 -145 -102 -235 -237 -235c-130 0 -222 85 -234 202z" />
    <glyph glyph-name="four" unicode="4" horiz-adv-x="615" 
d="M360 0v130h-301v64l295 506h132v-454h78v-116h-78v-130h-126zM212 246h148v267z" />
    <glyph glyph-name="five" unicode="5" horiz-adv-x="583" 
d="M72 183l119 22c15 -77 59 -97 105 -97c68 0 104 45 104 124c0 78 -39 121 -110 121c-47 0 -91 -26 -124 -63l-79 16l39 394h360v-116h-257l-16 -146c27 16 61 26 99 26c146 0 214 -95 214 -232c0 -141 -90 -240 -230 -240c-119 0 -212 75 -224 191z" />
    <glyph glyph-name="six" unicode="6" horiz-adv-x="593" 
d="M296 448h16c128 0 226 -92 226 -228c0 -130 -100 -228 -234 -228c-132 0 -234 97 -234 228c0 42 14 88 34 123l204 365h140zM304 332c-60 0 -108 -40 -108 -112c0 -68 49 -112 108 -112c60 0 108 44 108 112c0 72 -48 112 -108 112z" />
    <glyph glyph-name="seven" unicode="7" horiz-adv-x="497" 
d="M473 700v-52l-264 -648h-124l239 584h-275v116h424z" />
    <glyph glyph-name="eight" unicode="8" horiz-adv-x="594" 
d="M297 708c119 0 201 -87 201 -191c0 -57 -24 -107 -66 -140c57 -32 93 -89 93 -168c0 -136 -106 -217 -228 -217s-228 81 -228 217c0 79 35 136 92 168c-42 33 -65 83 -65 140c0 104 82 191 201 191zM297 310c-57 0 -102 -36 -102 -101s45 -101 102 -101s102 36 102 101
s-45 101 -102 101zM297 602c-51 0 -84 -35 -84 -87c0 -53 33 -89 84 -89s84 36 84 89c0 52 -33 87 -84 87z" />
    <glyph glyph-name="nine" unicode="9" horiz-adv-x="593" 
d="M313 252h-16c-128 0 -226 92 -226 228c0 130 100 228 234 228c132 0 234 -97 234 -228c0 -42 -14 -88 -34 -123l-204 -365h-140zM305 368c60 0 108 40 108 112c0 68 -49 112 -108 112c-60 0 -108 -44 -108 -112c0 -72 48 -112 108 -112z" />
    <glyph glyph-name="colon" unicode=":" horiz-adv-x="338" 
d="M82 78c0 48 36 84 84 84s84 -36 84 -84s-36 -84 -84 -84s-84 36 -84 84zM82 428c0 48 36 84 84 84s84 -36 84 -84s-36 -84 -84 -84s-84 36 -84 84z" />
    <glyph glyph-name="semicolon" unicode=";" horiz-adv-x="338" 
d="M12 -156l75 302h167l-155 -302h-87zM81 428c0 48 36 84 84 84s84 -36 84 -84s-36 -84 -84 -84s-84 36 -84 84z" />
    <glyph glyph-name="less" unicode="&#x3c;" horiz-adv-x="487" 
d="M45 252v116l391 204v-131l-252 -131l252 -131v-131z" />
    <glyph glyph-name="equal" unicode="=" horiz-adv-x="617" 
d="M90 346v108h437v-108h-437zM90 166v108h437v-108h-437z" />
    <glyph glyph-name="greater" unicode="&#x3e;" horiz-adv-x="487" 
d="M442 368v-116l-391 -204v131l252 131l-252 131v131z" />
    <glyph glyph-name="question" unicode="?" horiz-adv-x="460" 
d="M376 316c-22 -63 -73 -103 -145 -103c-80 0 -138 51 -138 128c0 68 45 106 108 130c78 30 100 50 100 83c0 35 -29 50 -65 50c-42 0 -72 -24 -85 -67l-109 18c15 84 82 153 191 153c112 0 185 -62 185 -158c0 -80 -51 -112 -138 -146c-66 -26 -85 -39 -85 -66
c0 -22 16 -35 36 -35c28 0 47 18 57 46zM148 76c0 46 37 84 83 84s83 -38 83 -84s-37 -82 -83 -82s-83 36 -83 82z" />
    <glyph glyph-name="at" unicode="@" horiz-adv-x="906" 
d="M247 296c0 118 80 220 216 220c43 0 76 -13 104 -38l11 31h83l-20 -219c-1 -14 -2 -23 -2 -29c0 -36 13 -51 39 -51c45 0 60 62 60 147c0 177 -113 259 -267 259c-144 0 -291 -102 -291 -315c0 -199 155 -293 290 -293c61 0 130 3 238 55l39 -97
c-95 -45 -170 -60 -277 -60c-244 0 -410 168 -410 395c0 254 173 417 416 417c250 0 382 -153 382 -366c0 -148 -77 -244 -190 -244c-52 0 -94 32 -109 69c-33 -41 -79 -69 -134 -69c-113 0 -178 79 -178 188zM458 414c-50 0 -96 -45 -96 -123c0 -53 24 -81 72 -81
c60 0 105 52 105 120c0 53 -29 84 -81 84z" />
    <glyph glyph-name="A" unicode="A" horiz-adv-x="614" 
d="M469 0l-51 165h-222l-51 -165h-140l237 700h130l237 -700h-140zM307 528l-74 -243h148z" />
    <glyph glyph-name="B" unicode="B" horiz-adv-x="624" 
d="M90 700h256c119 0 200 -62 200 -189c0 -57 -25 -106 -69 -129c66 -27 105 -82 105 -171c0 -136 -88 -211 -231 -211h-261v700zM336 580h-116v-152h119c52 0 82 19 82 76s-30 76 -85 76zM339 308h-119v-188h119c81 0 113 34 113 94s-32 94 -113 94z" />
    <glyph glyph-name="C" unicode="C" horiz-adv-x="700" 
d="M669 496l-117 -30c-27 71 -76 122 -173 122c-108 0 -199 -76 -199 -238s91 -238 199 -238c97 0 146 51 173 122l117 -30c-33 -134 -138 -212 -290 -212c-175 0 -331 124 -331 358s156 358 331 358c152 0 257 -78 290 -212z" />
    <glyph glyph-name="D" unicode="D" horiz-adv-x="683" 
d="M309 0h-219v700h219c165 0 326 -105 326 -350s-161 -350 -326 -350zM220 120h48c112 0 235 44 235 230s-123 230 -235 230h-48v-460z" />
    <glyph glyph-name="E" unicode="E" horiz-adv-x="575" 
d="M90 700h433v-120h-303v-147h243v-120h-243v-193h313v-120h-443v700z" />
    <glyph glyph-name="F" unicode="F" horiz-adv-x="562" 
d="M90 700h443v-120h-313v-160h252v-120h-252v-300h-130v700z" />
    <glyph glyph-name="G" unicode="G" horiz-adv-x="732" 
d="M552 0l-11 75c-27 -41 -80 -83 -170 -83c-169 0 -323 119 -323 358s160 358 333 358c156 0 255 -93 291 -221l-119 -31c-33 80 -87 132 -172 132c-112 0 -201 -75 -201 -238c0 -168 89 -238 198 -238c103 0 149 70 157 133h-130v108h256v-353h-109z" />
    <glyph glyph-name="H" unicode="H" horiz-adv-x="720" 
d="M90 0v700h130v-266h280v266h130v-700h-130v314h-280v-314h-130z" />
    <glyph glyph-name="I" unicode="I" horiz-adv-x="310" 
d="M220 700v-700h-130v700h130z" />
    <glyph glyph-name="J" unicode="J" horiz-adv-x="515" 
d="M2 173l128 27c12 -62 42 -88 88 -88c55 0 93 27 93 120v468h130v-454c0 -189 -85 -254 -223 -254c-122 0 -202 68 -216 181z" />
    <glyph glyph-name="K" unicode="K" horiz-adv-x="643" 
d="M90 700h130v-260l239 260h160l-284 -313l304 -387h-165l-254 334v-334h-130v700z" />
    <glyph glyph-name="L" unicode="L" horiz-adv-x="531" 
d="M90 700h130v-580h297v-120h-427v700z" />
    <glyph glyph-name="M" unicode="M" horiz-adv-x="802" 
d="M90 0v700h146l165 -437l165 437h146v-700h-130v432l-134 -368h-94l-134 368v-432h-130z" />
    <glyph glyph-name="N" unicode="N" horiz-adv-x="704" 
d="M484 700h130v-700h-137l-257 462v-462h-130v700h137l257 -462v462z" />
    <glyph glyph-name="O" unicode="O" horiz-adv-x="756" 
d="M378 708c177 0 330 -115 330 -358s-153 -358 -330 -358s-330 115 -330 358s153 358 330 358zM378 588c-105 0 -198 -72 -198 -238s93 -238 198 -238s198 72 198 238s-93 238 -198 238z" />
    <glyph glyph-name="P" unicode="P" horiz-adv-x="592" 
d="M354 274h-134v-274h-130v700h264c148 0 219 -91 219 -213s-71 -213 -219 -213zM349 394c57 0 92 29 92 93s-35 93 -92 93h-129v-186h129z" />
    <glyph glyph-name="Q" unicode="Q" horiz-adv-x="756" 
d="M378 708c177 0 330 -115 330 -358c0 -82 -17 -149 -47 -202l67 -66l-91 -90l-61 60c-56 -41 -125 -60 -198 -60c-177 0 -330 115 -330 358s153 358 330 358zM394 234l91 90l76 -77c10 29 15 63 15 103c0 166 -93 238 -198 238s-198 -72 -198 -238s93 -238 198 -238
c39 0 76 10 107 30z" />
    <glyph glyph-name="R" unicode="R" horiz-adv-x="653" 
d="M558 501c0 -92 -46 -162 -131 -188l194 -313h-145l-188 302h-68v-302h-130v700h255c140 0 213 -83 213 -199zM346 422c47 0 82 22 82 79s-35 79 -82 79h-126v-158h126z" />
    <glyph glyph-name="S" unicode="S" horiz-adv-x="537" 
d="M470 581l-105 -67c-27 52 -56 74 -97 74c-38 0 -67 -27 -67 -64c0 -122 299 -106 299 -314c0 -137 -90 -218 -224 -218c-127 0 -219 89 -241 196l105 66c21 -75 63 -142 139 -142c54 0 91 27 91 91c0 116 -293 93 -293 315c0 106 81 190 191 190c93 0 164 -46 202 -127z
" />
    <glyph glyph-name="T" unicode="T" horiz-adv-x="534" 
d="M8 580v120h518v-120h-194v-580h-130v580h-194z" />
    <glyph glyph-name="U" unicode="U" horiz-adv-x="656" 
d="M589 700v-434c0 -187 -108 -274 -261 -274s-261 87 -261 274v434h130v-436c0 -102 43 -152 131 -152s131 50 131 152v436h130z" />
    <glyph glyph-name="V" unicode="V" horiz-adv-x="604" 
d="M368 0h-132l-235 700h144l157 -518l157 518h144z" />
    <glyph glyph-name="W" unicode="W" horiz-adv-x="920" 
d="M764 700h138l-183 -700h-132l-127 412l-127 -412h-132l-183 700h138l117 -515l131 441h112l131 -441z" />
    <glyph glyph-name="X" unicode="X" horiz-adv-x="592" 
d="M410 700h142l-185 -322l218 -378h-144l-145 253l-145 -253h-144l218 378l-185 322h142l114 -198z" />
    <glyph glyph-name="Y" unicode="Y" horiz-adv-x="534" 
d="M0 700h140l127 -272l127 272h140l-202 -402v-298h-130v298z" />
    <glyph glyph-name="Z" unicode="Z" horiz-adv-x="558" 
d="M47 580v120h464v-60l-300 -520h314v-120h-495v60l303 520h-286z" />
    <glyph glyph-name="bracketleft" unicode="[" horiz-adv-x="352" 
d="M90 -50v800h230v-108h-110v-584h110v-108h-230z" />
    <glyph glyph-name="backslash" unicode="\" horiz-adv-x="550" 
d="M-14 750h120l436 -800h-120z" />
    <glyph glyph-name="bracketright" unicode="]" horiz-adv-x="352" 
d="M262 750v-800h-230v108h110v584h-110v108h230z" />
    <glyph glyph-name="asciicircum" unicode="^" horiz-adv-x="599" 
d="M246 700h107l195 -297h-120l-128 189l-129 -189h-120z" />
    <glyph glyph-name="underscore" unicode="_" horiz-adv-x="505" 
d="M25 -108v108h455v-108h-455z" />
    <glyph glyph-name="grave" unicode="`" horiz-adv-x="260" 
d="M181 708l64 -148h-95l-137 148h168z" />
    <glyph glyph-name="a" unicode="a" horiz-adv-x="514" 
d="M162 348l-105 24c16 83 89 140 192 140c120 0 212 -50 212 -211v-301h-102l-13 64c-35 -43 -83 -72 -155 -72c-86 0 -153 53 -153 153s88 165 215 165h84v22c0 56 -42 74 -88 74c-35 0 -71 -11 -87 -58zM168 147c0 -24 17 -49 52 -49c57 0 117 39 117 104v10h-83
c-53 0 -86 -20 -86 -65z" />
    <glyph glyph-name="b" unicode="b" horiz-adv-x="599" 
d="M556 252c0 -155 -78 -260 -230 -260c-62 0 -108 34 -122 60v-52h-124v708h124v-250c22 28 71 54 122 54c152 0 230 -105 230 -260zM426 252c0 100 -52 154 -117 154s-116 -54 -116 -154s51 -154 116 -154s117 54 117 154z" />
    <glyph glyph-name="c" unicode="c" horiz-adv-x="551" 
d="M407 181l111 -45c-38 -95 -117 -144 -229 -144c-164 0 -246 118 -246 260s82 260 246 260c112 0 191 -49 229 -144l-111 -45c-26 53 -62 83 -118 83c-78 0 -116 -65 -116 -154s38 -154 116 -154c56 0 92 30 118 83z" />
    <glyph glyph-name="d" unicode="d" horiz-adv-x="599" 
d="M43 252c0 155 78 260 230 260c51 0 100 -26 122 -54v250h124v-708h-124v52c-14 -26 -60 -60 -122 -60c-152 0 -230 105 -230 260zM173 252c0 -100 52 -154 117 -154s116 54 116 154s-51 154 -116 154s-117 -54 -117 -154z" />
    <glyph glyph-name="e" unicode="e" horiz-adv-x="556" 
d="M520 263v-51h-347c3 -56 42 -114 119 -114c57 0 92 26 122 78l100 -37c-39 -89 -107 -147 -229 -147c-173 0 -242 141 -242 260s69 260 242 260c168 0 235 -139 235 -249zM285 406c-63 0 -100 -48 -109 -96h217c-11 50 -42 96 -108 96z" />
    <glyph glyph-name="f" unicode="f" horiz-adv-x="368" 
d="M32 398v106h64v26c0 123 70 178 174 178c39 0 72 -8 94 -20l-27 -100c-21 9 -39 14 -60 14c-35 0 -57 -18 -57 -63v-35h106v-106h-106v-398h-124v398h-64z" />
    <glyph glyph-name="g" unicode="g" horiz-adv-x="515" 
d="M81 342c0 105 83 170 185 170c34 0 65 -8 93 -22l95 50l49 -82l-72 -36c13 -23 20 -50 20 -80c0 -106 -83 -168 -185 -168c-26 0 -51 4 -73 11c-15 -9 -24 -22 -24 -38c0 -24 17 -37 47 -37h103c106 0 177 -51 177 -148c0 -124 -117 -174 -229 -174
c-129 0 -228 56 -228 166c0 41 15 76 41 100c-16 19 -26 46 -26 78c0 48 25 84 62 106c-22 27 -35 62 -35 104zM291 6h-68c-21 0 -40 1 -58 4c-8 -12 -11 -27 -11 -46c0 -48 48 -72 113 -72c59 0 105 17 105 62c0 42 -34 52 -81 52zM197 342c0 -41 29 -68 69 -68
s69 27 69 68c0 42 -29 70 -69 70s-69 -28 -69 -70z" />
    <glyph glyph-name="h" unicode="h" horiz-adv-x="593" 
d="M80 708h124v-285c32 51 87 89 160 89c95 0 157 -49 157 -152v-360h-124v316c0 61 -24 90 -75 90c-57 0 -118 -57 -118 -193v-213h-124v708z" />
    <glyph glyph-name="i" unicode="i" horiz-adv-x="260" 
d="M50 649c0 45 34 80 80 80s80 -35 80 -80s-34 -80 -80 -80s-80 35 -80 80zM68 504h124v-504h-124v504z" />
    <glyph glyph-name="j" unicode="j" horiz-adv-x="260" 
d="M68 504h124v-446c0 -161 -70 -237 -211 -270l-30 109c73 18 117 52 117 146v461zM50 649c0 45 34 80 80 80s80 -35 80 -80s-34 -80 -80 -80s-80 35 -80 80z" />
    <glyph glyph-name="k" unicode="k" horiz-adv-x="537" 
d="M80 708h124v-402l164 198h153l-202 -232l215 -272h-152l-178 238v-238h-124v708z" />
    <glyph glyph-name="l" unicode="l" horiz-adv-x="278" 
d="M78 708h124v-708h-124v708z" />
    <glyph glyph-name="m" unicode="m" horiz-adv-x="866" 
d="M499 0h-124v336c0 51 -25 70 -62 70c-61 0 -109 -71 -109 -221v-185h-124v504h124v-81c37 56 80 89 145 89c62 0 119 -31 141 -104c36 65 92 104 154 104c94 0 150 -58 150 -155v-357h-124v336c0 51 -25 70 -62 70c-60 0 -109 -68 -109 -210v-196z" />
    <glyph glyph-name="n" unicode="n" 
d="M80 504h124v-81c37 53 91 89 156 89c90 0 155 -51 155 -152v-360h-124v323c0 60 -30 83 -72 83c-60 0 -115 -72 -115 -205v-201h-124v504z" />
    <glyph glyph-name="o" unicode="o" horiz-adv-x="598" 
d="M43 252c0 146 94 260 256 260s256 -114 256 -260s-94 -260 -256 -260s-256 114 -256 260zM173 252c0 -83 46 -154 126 -154s126 71 126 154s-46 154 -126 154s-126 -71 -126 -154z" />
    <glyph glyph-name="p" unicode="p" horiz-adv-x="599" 
d="M556 252c0 -155 -78 -260 -230 -260c-51 0 -100 26 -122 54v-250h-124v708h124v-52c14 26 60 60 122 60c152 0 230 -105 230 -260zM426 252c0 100 -52 154 -117 154s-116 -54 -116 -154s51 -154 116 -154s117 54 117 154z" />
    <glyph glyph-name="q" unicode="q" horiz-adv-x="599" 
d="M43 252c0 155 78 260 230 260c62 0 108 -34 122 -60v52h124v-708h-124v250c-22 -28 -71 -54 -122 -54c-152 0 -230 105 -230 260zM173 252c0 -100 52 -154 117 -154s116 54 116 154s-51 154 -116 154s-117 -54 -117 -154z" />
    <glyph glyph-name="r" unicode="r" horiz-adv-x="422" 
d="M204 0h-124v504h124v-82c36 59 92 90 149 90c22 0 41 -4 61 -10l-23 -115c-15 9 -31 14 -52 14c-72 0 -135 -59 -135 -222v-179z" />
    <glyph glyph-name="s" unicode="s" horiz-adv-x="456" 
d="M231 512c68 0 127 -33 158 -82l-74 -68c-23 30 -56 44 -84 44c-24 0 -46 -14 -46 -42c0 -22 18 -38 48 -49c69 -25 182 -47 182 -155c0 -91 -70 -168 -179 -168c-105 0 -175 74 -200 136l99 53c18 -49 52 -83 101 -83c38 0 62 17 62 54c0 42 -65 51 -126 77
c-55 23 -102 58 -102 136s63 147 161 147z" />
    <glyph glyph-name="t" unicode="t" horiz-adv-x="392" 
d="M334 110l29 -100c-28 -13 -55 -18 -82 -18c-114 0 -185 61 -185 186v220h-78v106h78v126l124 78v-204h133v-106h-133v-218c0 -62 24 -82 66 -82c17 0 31 3 48 12z" />
    <glyph glyph-name="u" unicode="u" 
d="M507 0h-124v81c-37 -53 -91 -89 -156 -89c-90 0 -155 51 -155 152v360h124v-323c0 -60 30 -83 72 -83c60 0 115 72 115 205v201h124v-504z" />
    <glyph glyph-name="v" unicode="v" horiz-adv-x="464" 
d="M5 504h125l102 -351l102 351h125l-171 -504h-112z" />
    <glyph glyph-name="w" unicode="w" horiz-adv-x="766" 
d="M616 504h125l-161 -504h-110l-87 326l-87 -326h-110l-161 504h125l90 -346l85 346h116l85 -346z" />
    <glyph glyph-name="x" unicode="x" horiz-adv-x="482" 
d="M323 504h130l-146 -235l167 -269h-130l-103 164l-103 -164h-130l167 269l-146 235h130l82 -131z" />
    <glyph glyph-name="y" unicode="y" horiz-adv-x="481" 
d="M3 504h125l117 -316l110 316h124l-260 -708h-120l87 236z" />
    <glyph glyph-name="z" unicode="z" horiz-adv-x="465" 
d="M57 398v106h356v-48l-216 -350h230v-106h-386v48l218 350h-202z" />
    <glyph glyph-name="braceleft" unicode="{" horiz-adv-x="346" 
d="M136 50v166c0 62 -20 80 -80 80v108c60 0 80 18 80 80v166c0 60 40 100 100 100h88v-108h-27c-32 0 -41 -11 -41 -45v-149c0 -79 -34 -92 -74 -98c40 -6 74 -19 74 -98v-149c0 -34 9 -45 41 -45h27v-108h-88c-60 0 -100 40 -100 100z" />
    <glyph glyph-name="bar" unicode="|" horiz-adv-x="302" 
d="M90 750h122v-800h-122v800z" />
    <glyph glyph-name="braceright" unicode="}" horiz-adv-x="346" 
d="M210 216v-166c0 -60 -40 -100 -100 -100h-88v108h27c32 0 41 11 41 45v149c0 79 34 92 74 98c-40 6 -74 19 -74 98v149c0 34 -9 45 -41 45h-27v108h88c60 0 100 -40 100 -100v-166c0 -62 20 -80 80 -80v-108c-60 0 -80 -18 -80 -80z" />
    <glyph glyph-name="asciitilde" unicode="~" horiz-adv-x="654" 
d="M138 249l-64 69c24 57 83 111 151 111c85 0 131 -59 200 -59c38 0 69 23 91 51l64 -69c-24 -57 -83 -111 -151 -111c-85 0 -131 59 -200 59c-38 0 -69 -23 -91 -51z" />
    <glyph glyph-name="exclamdown" unicode="&#xa1;" horiz-adv-x="360" 
d="M259 -204h-164l28 458h108zM94 420c0 46 37 82 83 82s83 -36 83 -82s-37 -84 -83 -84s-83 38 -83 84z" />
    <glyph glyph-name="cent" unicode="&#xa2;" horiz-adv-x="583" 
d="M418 279l111 -45c-31 -76 -88 -123 -168 -138v-146h-122v146c-124 26 -185 131 -185 254s61 228 185 254v146h122v-146c80 -15 137 -62 168 -138l-111 -45c-26 53 -62 83 -118 83c-78 0 -116 -65 -116 -154s38 -154 116 -154c56 0 92 30 118 83z" />
    <glyph glyph-name="sterling" unicode="&#xa3;" horiz-adv-x="557" 
d="M53 306v116h48c-8 23 -16 49 -16 78c0 118 83 208 213 208c106 0 177 -54 207 -138l-103 -49c-22 48 -56 71 -104 71c-45 0 -89 -28 -89 -99c0 -30 3 -52 8 -71h173v-116h-138c2 -12 3 -24 3 -38c0 -83 -38 -126 -81 -163c28 17 63 32 99 32c49 0 61 -30 108 -30
c25 0 45 10 72 56l86 -54c-45 -79 -95 -117 -165 -117c-72 0 -91 37 -152 37c-44 0 -76 -14 -116 -37l-69 76c55 51 108 102 108 177c0 23 -4 42 -9 61h-83z" />
    <glyph glyph-name="currency" unicode="&#xa4;" horiz-adv-x="570" 
d="M20 139l89 69c-16 29 -25 63 -25 99s9 70 25 99l-89 69l97 97l69 -89c29 17 63 26 99 26s70 -9 99 -26l69 89l97 -97l-89 -69c16 -29 25 -63 25 -99s-9 -70 -25 -99l89 -69l-97 -97l-69 89c-29 -17 -63 -26 -99 -26s-70 9 -99 26l-69 -89zM204 307c0 -53 30 -89 81 -89
s81 36 81 89s-30 89 -81 89s-81 -36 -81 -89z" />
    <glyph glyph-name="yen" unicode="&#xa5;" horiz-adv-x="538" 
d="M8 700h140l121 -272l121 272h140l-144 -294h91v-108h-143v-72h143v-108h-143v-118h-130v118h-143v108h143v72h-143v108h91z" />
    <glyph glyph-name="brokenbar" unicode="&#xa6;" horiz-adv-x="302" 
d="M90 299h122v-349h-122v349zM212 401h-122v349h122v-349z" />
    <glyph glyph-name="section" unicode="&#xa7;" horiz-adv-x="549" 
d="M490 222c0 -64 -22 -107 -59 -139c20 -34 25 -70 25 -100c0 -120 -84 -195 -181 -195c-103 0 -173 49 -200 151l110 36c19 -53 50 -71 90 -71c36 0 61 24 61 72c0 68 -69 91 -171 143c-59 30 -105 77 -105 155c0 64 22 107 59 139c-20 34 -25 70 -25 100
c0 120 84 195 181 195c103 0 173 -49 200 -151l-110 -36c-19 53 -50 71 -90 71c-36 0 -61 -24 -61 -72c0 -68 69 -91 171 -143c59 -30 105 -77 105 -155zM382 213c0 60 -99 87 -184 131c-18 -14 -30 -34 -30 -61c0 -60 99 -87 184 -131c19 15 30 34 30 61z" />
    <glyph glyph-name="dieresis" unicode="&#xa8;" horiz-adv-x="381" 
d="M16 651c0 41 29 71 71 71s71 -30 71 -71s-29 -71 -71 -71s-71 30 -71 71zM223 651c0 41 29 71 71 71s71 -30 71 -71s-29 -71 -71 -71s-71 30 -71 71z" />
    <glyph glyph-name="copyright" unicode="&#xa9;" horiz-adv-x="890" 
d="M60 350c0 222 167 390 385 390s385 -168 385 -390s-167 -390 -385 -390s-385 168 -385 390zM170 350c0 -165 114 -284 275 -284s275 119 275 284s-114 284 -275 284s-275 -119 -275 -284zM533 294l97 -19c-14 -93 -94 -141 -185 -141c-105 0 -201 73 -201 216
s96 216 201 216c91 0 171 -48 185 -141l-97 -19c-17 52 -52 65 -88 65c-54 0 -91 -50 -91 -121s37 -121 91 -121c36 0 71 13 88 65z" />
    <glyph glyph-name="ordfeminine" unicode="&#xaa;" horiz-adv-x="449" 
d="M155 575l-82 19c12 65 70 110 151 110c94 0 166 -39 166 -166v-238h-81l-9 52c-28 -33 -65 -56 -122 -56c-64 0 -120 42 -120 120c0 79 69 130 169 130h66v17c0 44 -33 58 -69 58c-28 0 -56 -9 -69 -46zM160 416c0 -19 12 -37 41 -37c45 0 92 31 92 82v11h-66
c-41 0 -67 -21 -67 -56z" />
    <glyph glyph-name="guillemotleft" unicode="&#xab;" horiz-adv-x="703" 
d="M44 269v82l309 218v-128l-185 -131l185 -131v-128zM344 269v82l309 218v-128l-185 -131l185 -131v-128z" />
    <glyph glyph-name="logicalnot" unicode="&#xac;" horiz-adv-x="596" 
d="M60 295v112h466v-265h-124v153h-342z" />
    <glyph glyph-name="registered" unicode="&#xae;" horiz-adv-x="890" 
d="M60 350c0 222 167 390 385 390s385 -168 385 -390s-167 -390 -385 -390s-385 168 -385 390zM170 350c0 -165 114 -284 275 -284s275 119 275 284s-114 284 -275 284s-275 -119 -275 -284zM515 137l-109 182h-12v-182h-105v426h169c95 0 140 -45 140 -122
c0 -68 -35 -107 -87 -117l117 -187h-113zM448 480h-54v-78h54c37 0 48 16 48 39c0 24 -11 39 -48 39z" />
    <glyph glyph-name="macron" unicode="&#xaf;" horiz-adv-x="287" 
d="M9 618v110h269v-110h-269z" />
    <glyph glyph-name="degree" unicode="&#xb0;" horiz-adv-x="364" 
d="M60 593c0 69 52 121 122 121s122 -52 122 -121s-52 -121 -122 -121s-122 52 -122 121zM143 593c0 -24 15 -40 39 -40s39 16 39 40s-15 40 -39 40s-39 -16 -39 -40z" />
    <glyph glyph-name="plusminus" unicode="&#xb1;" horiz-adv-x="591" 
d="M242 637h108v-184h184v-108h-184v-184h-108v184h-184v108h184v184zM58 0v108h476v-108h-476z" />
    <glyph glyph-name="twosuperior" unicode="&#xb2;" horiz-adv-x="379" 
d="M53 300v35l145 177c21 25 27 47 27 68c0 27 -16 41 -38 41s-43 -11 -51 -53l-80 23c8 67 62 113 131 113c77 0 131 -46 131 -122c0 -41 -18 -72 -40 -99l-82 -100h128v-83h-271z" />
    <glyph glyph-name="threesuperior" unicode="&#xb3;" horiz-adv-x="388" 
d="M53 422l80 10c7 -36 31 -53 58 -53c32 0 49 21 49 59c0 37 -21 53 -48 53c-16 0 -24 -3 -37 -10l-40 50l66 86h-110v83h237v-35l-89 -114c67 0 114 -53 114 -116c0 -82 -45 -139 -140 -139c-82 0 -136 55 -140 126z" />
    <glyph glyph-name="acute" unicode="&#xb4;" horiz-adv-x="260" 
d="M15 560l64 148h168l-137 -148h-95z" />
    <glyph glyph-name="mu" unicode="&#xb5;" 
d="M507 0h-124v81c-37 -53 -91 -89 -156 -89c-11 0 -21 1 -31 3v-199h-124v708h124v-323c0 -60 30 -83 72 -83c60 0 115 72 115 205v201h124v-504z" />
    <glyph glyph-name="paragraph" unicode="&#xb6;" horiz-adv-x="744" 
d="M54 473c0 125 102 227 227 227h403v-108h-62v-796h-120v796h-101v-796h-120v450c-125 0 -227 102 -227 227z" />
    <glyph glyph-name="periodcentered" unicode="&#xb7;" horiz-adv-x="328" 
d="M80 368c0 48 36 84 84 84s84 -36 84 -84s-36 -84 -84 -84s-84 36 -84 84z" />
    <glyph glyph-name="cedilla" unicode="&#xb8;" horiz-adv-x="241" 
d="M236 -60l-83 -206l-148 66l141 140h90z" />
    <glyph glyph-name="onesuperior" unicode="&#xb9;" horiz-adv-x="306" 
d="M189 700h37v-400h-89v278l-85 -38v95z" />
    <glyph glyph-name="ordmasculine" unicode="&#xba;" horiz-adv-x="522" 
d="M60 500c0 115 74 204 201 204s201 -89 201 -204s-74 -204 -201 -204s-201 89 -201 204zM162 500c0 -65 36 -121 99 -121s99 56 99 121s-36 121 -99 121s-99 -56 -99 -121z" />
    <glyph glyph-name="guillemotright" unicode="&#xbb;" horiz-adv-x="703" 
d="M659 351v-82l-309 -218v128l185 131l-185 131v128zM359 351v-82l-309 -218v128l185 131l-185 131v128z" />
    <glyph glyph-name="onequarter" unicode="&#xbc;" horiz-adv-x="863" 
d="M669 738l72 -57l-538 -719l-72 58zM207 700h37v-400h-89v278l-85 -38v95zM651 0v65h-167v45l161 290h95v-252h43v-83h-43v-65h-89zM588 148h63v122z" />
    <glyph glyph-name="onehalf" unicode="&#xbd;" horiz-adv-x="918" 
d="M669 738l72 -57l-538 -719l-72 58zM207 700h37v-400h-89v278l-85 -38v95zM567 0v35l145 177c21 25 27 47 27 68c0 27 -16 41 -38 41s-43 -11 -51 -53l-80 23c8 67 62 113 131 113c77 0 131 -46 131 -122c0 -41 -18 -72 -40 -99l-82 -100h128v-83h-271z" />
    <glyph glyph-name="threequarters" unicode="&#xbe;" horiz-adv-x="841" 
d="M691 738l72 -57l-538 -719l-72 58zM53 422l80 10c7 -36 31 -53 58 -53c32 0 49 21 49 59c0 37 -21 53 -48 53c-16 0 -24 -3 -37 -10l-40 50l66 86h-110v83h237v-35l-89 -114c67 0 114 -53 114 -116c0 -82 -45 -139 -140 -139c-82 0 -136 55 -140 126zM654 0v65h-167v45
l161 290h95v-252h43v-83h-43v-65h-89zM591 148h63v122z" />
    <glyph glyph-name="questiondown" unicode="&#xbf;" horiz-adv-x="472" 
d="M90 180c22 63 73 103 145 103c80 0 138 -51 138 -128c0 -68 -45 -106 -108 -130c-78 -30 -100 -50 -100 -83c0 -35 29 -50 65 -50c42 0 72 24 85 67l109 -18c-15 -84 -82 -153 -191 -153c-112 0 -185 62 -185 158c0 80 51 112 138 146c66 26 85 39 85 66
c0 22 -16 35 -36 35c-28 0 -47 -18 -57 -46zM318 420c0 -46 -37 -84 -83 -84s-83 38 -83 84s37 82 83 82s83 -36 83 -82z" />
    <glyph glyph-name="Agrave" unicode="&#xc0;" horiz-adv-x="614" 
d="M469 0l-51 165h-222l-51 -165h-140l237 700h130l237 -700h-140zM307 528l-74 -243h148zM318 904l64 -148h-95l-137 148h168z" />
    <glyph glyph-name="Aacute" unicode="&#xc1;" horiz-adv-x="614" 
d="M469 0l-51 165h-222l-51 -165h-140l237 700h130l237 -700h-140zM307 528l-74 -243h148zM221 756l64 148h168l-137 -148h-95z" />
    <glyph glyph-name="Acircumflex" unicode="&#xc2;" horiz-adv-x="614" 
d="M469 0l-51 165h-222l-51 -165h-140l237 700h130l237 -700h-140zM307 528l-74 -243h148zM119 762l171 186h34l171 -186h-120l-68 74l-68 -74h-120z" />
    <glyph glyph-name="Atilde" unicode="&#xc3;" horiz-adv-x="614" 
d="M469 0l-51 165h-222l-51 -165h-140l237 700h130l237 -700h-140zM307 528l-74 -243h148zM180 765l-65 55c23 51 72 87 123 87c66 0 85 -41 133 -41c22 0 45 17 64 43l65 -55c-23 -51 -72 -87 -123 -87c-66 0 -85 41 -133 41c-22 0 -45 -17 -64 -43z" />
    <glyph glyph-name="Adieresis" unicode="&#xc4;" horiz-adv-x="614" 
d="M469 0l-51 165h-222l-51 -165h-140l237 700h130l237 -700h-140zM307 528l-74 -243h148zM133 847c0 41 29 71 71 71s71 -30 71 -71s-29 -71 -71 -71s-71 30 -71 71zM340 847c0 41 29 71 71 71s71 -30 71 -71s-29 -71 -71 -71s-71 30 -71 71z" />
    <glyph glyph-name="Aring" unicode="&#xc5;" horiz-adv-x="614" 
d="M469 0l-51 165h-222l-51 -165h-140l237 700h130l237 -700h-140zM307 528l-74 -243h148zM204 851c0 58 43 102 103 102s103 -44 103 -102s-43 -102 -103 -102s-103 44 -103 102zM277 851c0 -19 11 -32 30 -32s30 13 30 32s-11 32 -30 32s-30 -13 -30 -32z" />
    <glyph glyph-name="AE" unicode="&#xc6;" horiz-adv-x="859" 
d="M314 700h493v-120h-303v-147h243v-120h-243v-193h313v-120h-443v165h-160l-66 -165h-140zM361 528l-98 -243h111v243h-13z" />
    <glyph glyph-name="Ccedilla" unicode="&#xc7;" horiz-adv-x="700" 
d="M669 496l-117 -30c-27 71 -76 122 -173 122c-108 0 -199 -76 -199 -238s91 -238 199 -238c97 0 146 51 173 122l117 -30c-33 -134 -138 -212 -290 -212c-175 0 -331 124 -331 358s156 358 331 358c152 0 257 -78 290 -212zM464 -60l-83 -206l-148 66l141 140h90z" />
    <glyph glyph-name="Egrave" unicode="&#xc8;" horiz-adv-x="575" 
d="M90 700h433v-120h-303v-147h243v-120h-243v-193h313v-120h-443v700zM326 904l64 -148h-95l-137 148h168z" />
    <glyph glyph-name="Eacute" unicode="&#xc9;" horiz-adv-x="575" 
d="M90 700h433v-120h-303v-147h243v-120h-243v-193h313v-120h-443v700zM218 756l64 148h168l-137 -148h-95z" />
    <glyph glyph-name="Ecircumflex" unicode="&#xca;" horiz-adv-x="575" 
d="M90 700h433v-120h-303v-147h243v-120h-243v-193h313v-120h-443v700zM124 762l171 186h34l171 -186h-120l-68 74l-68 -74h-120z" />
    <glyph glyph-name="Edieresis" unicode="&#xcb;" horiz-adv-x="575" 
d="M90 700h433v-120h-303v-147h243v-120h-243v-193h313v-120h-443v700zM139 847c0 41 29 71 71 71s71 -30 71 -71s-29 -71 -71 -71s-71 30 -71 71zM346 847c0 41 29 71 71 71s71 -30 71 -71s-29 -71 -71 -71s-71 30 -71 71z" />
    <glyph glyph-name="Igrave" unicode="&#xcc;" horiz-adv-x="310" 
d="M220 700v-700h-130v700h130zM167 904l64 -148h-95l-137 148h168z" />
    <glyph glyph-name="Iacute" unicode="&#xcd;" horiz-adv-x="310" 
d="M220 700v-700h-130v700h130zM79 756l64 148h168l-137 -148h-95z" />
    <glyph glyph-name="Icircumflex" unicode="&#xce;" horiz-adv-x="310" 
d="M220 700v-700h-130v700h130zM-33 762l171 186h34l171 -186h-120l-68 74l-68 -74h-120z" />
    <glyph glyph-name="Idieresis" unicode="&#xcf;" horiz-adv-x="310" 
d="M220 700v-700h-130v700h130zM-19 847c0 41 29 71 71 71s71 -30 71 -71s-29 -71 -71 -71s-71 30 -71 71zM188 847c0 41 29 71 71 71s71 -30 71 -71s-29 -71 -71 -71s-71 30 -71 71z" />
    <glyph glyph-name="Eth" unicode="&#xd0;" horiz-adv-x="708" 
d="M22 296v108h93v296h219c165 0 326 -105 326 -350s-161 -350 -326 -350h-219v296h-93zM293 580h-48v-176h93v-108h-93v-176h48c112 0 235 44 235 230s-123 230 -235 230z" />
    <glyph glyph-name="Ntilde" unicode="&#xd1;" horiz-adv-x="704" 
d="M484 700h130v-700h-137l-257 462v-462h-130v700h137l257 -462v462zM219 765l-65 55c23 51 72 87 123 87c66 0 85 -41 133 -41c22 0 45 17 64 43l65 -55c-23 -51 -72 -87 -123 -87c-66 0 -85 41 -133 41c-22 0 -45 -17 -64 -43z" />
    <glyph glyph-name="Ograve" unicode="&#xd2;" horiz-adv-x="756" 
d="M378 708c177 0 330 -115 330 -358s-153 -358 -330 -358s-330 115 -330 358s153 358 330 358zM378 588c-105 0 -198 -72 -198 -238s93 -238 198 -238s198 72 198 238s-93 238 -198 238zM380 904l64 -148h-95l-137 148h168z" />
    <glyph glyph-name="Oacute" unicode="&#xd3;" horiz-adv-x="756" 
d="M378 708c177 0 330 -115 330 -358s-153 -358 -330 -358s-330 115 -330 358s153 358 330 358zM378 588c-105 0 -198 -72 -198 -238s93 -238 198 -238s198 72 198 238s-93 238 -198 238zM292 756l64 148h168l-137 -148h-95z" />
    <glyph glyph-name="Ocircumflex" unicode="&#xd4;" horiz-adv-x="756" 
d="M378 708c177 0 330 -115 330 -358s-153 -358 -330 -358s-330 115 -330 358s153 358 330 358zM378 588c-105 0 -198 -72 -198 -238s93 -238 198 -238s198 72 198 238s-93 238 -198 238zM190 762l171 186h34l171 -186h-120l-68 74l-68 -74h-120z" />
    <glyph glyph-name="Otilde" unicode="&#xd5;" horiz-adv-x="756" 
d="M378 708c177 0 330 -115 330 -358s-153 -358 -330 -358s-330 115 -330 358s153 358 330 358zM378 588c-105 0 -198 -72 -198 -238s93 -238 198 -238s198 72 198 238s-93 238 -198 238zM251 765l-65 55c23 51 72 87 123 87c66 0 85 -41 133 -41c22 0 45 17 64 43l65 -55
c-23 -51 -72 -87 -123 -87c-66 0 -85 41 -133 41c-22 0 -45 -17 -64 -43z" />
    <glyph glyph-name="Odieresis" unicode="&#xd6;" horiz-adv-x="756" 
d="M378 708c177 0 330 -115 330 -358s-153 -358 -330 -358s-330 115 -330 358s153 358 330 358zM378 588c-105 0 -198 -72 -198 -238s93 -238 198 -238s198 72 198 238s-93 238 -198 238zM204 847c0 41 29 71 71 71s71 -30 71 -71s-29 -71 -71 -71s-71 30 -71 71zM411 847
c0 41 29 71 71 71s71 -30 71 -71s-29 -71 -71 -71s-71 30 -71 71z" />
    <glyph glyph-name="multiply" unicode="&#xd7;" horiz-adv-x="590" 
d="M530 159l-77 -77l-158 159l-158 -159l-77 77l159 158l-159 158l77 77l158 -159l158 159l77 -77l-159 -158z" />
    <glyph glyph-name="Oslash" unicode="&#xd8;" horiz-adv-x="756" 
d="M614 741l86 -63l-66 -85c46 -58 74 -139 74 -243c0 -243 -153 -358 -330 -358c-63 0 -124 15 -175 45l-61 -78l-86 63l66 85c-46 58 -74 139 -74 243c0 243 153 358 330 358c63 0 124 -15 175 -45zM576 350c0 54 -10 99 -27 134l-269 -347c30 -17 63 -25 98 -25
c105 0 198 71 198 238zM378 588c-105 0 -198 -71 -198 -238c0 -54 10 -99 27 -134l269 347c-30 17 -63 25 -98 25z" />
    <glyph glyph-name="Ugrave" unicode="&#xd9;" horiz-adv-x="656" 
d="M589 700v-434c0 -187 -108 -274 -261 -274s-261 87 -261 274v434h130v-436c0 -102 43 -152 131 -152s131 50 131 152v436h130zM336 904l64 -148h-95l-137 148h168z" />
    <glyph glyph-name="Uacute" unicode="&#xda;" horiz-adv-x="656" 
d="M589 700v-434c0 -187 -108 -274 -261 -274s-261 87 -261 274v434h130v-436c0 -102 43 -152 131 -152s131 50 131 152v436h130zM254 756l64 148h168l-137 -148h-95z" />
    <glyph glyph-name="Ucircumflex" unicode="&#xdb;" horiz-adv-x="656" 
d="M589 700v-434c0 -187 -108 -274 -261 -274s-261 87 -261 274v434h130v-436c0 -102 43 -152 131 -152s131 50 131 152v436h130zM140 762l171 186h34l171 -186h-120l-68 74l-68 -74h-120z" />
    <glyph glyph-name="Udieresis" unicode="&#xdc;" horiz-adv-x="656" 
d="M589 700v-434c0 -187 -108 -274 -261 -274s-261 87 -261 274v434h130v-436c0 -102 43 -152 131 -152s131 50 131 152v436h130zM154 847c0 41 29 71 71 71s71 -30 71 -71s-29 -71 -71 -71s-71 30 -71 71zM361 847c0 41 29 71 71 71s71 -30 71 -71s-29 -71 -71 -71
s-71 30 -71 71z" />
    <glyph glyph-name="Yacute" unicode="&#xdd;" horiz-adv-x="534" 
d="M0 700h140l127 -272l127 272h140l-202 -402v-298h-130v298zM191 756l64 148h168l-137 -148h-95z" />
    <glyph glyph-name="Thorn" unicode="&#xde;" horiz-adv-x="592" 
d="M354 137h-134v-137h-130v700h130v-137h134c148 0 219 -91 219 -213s-71 -213 -219 -213zM349 257c57 0 92 29 92 93s-35 93 -92 93h-129v-186h129z" />
    <glyph glyph-name="germandbls" unicode="&#xdf;" horiz-adv-x="570" 
d="M32 326v112h52v62c0 137 83 208 201 208c124 0 190 -71 190 -177c0 -67 -37 -115 -80 -130c72 -20 136 -79 136 -182c0 -158 -78 -227 -223 -227c-21 0 -50 4 -65 8v108c20 -4 41 -8 63 -8c78 0 105 44 105 112c0 82 -45 114 -120 114h-33v112h20c51 0 84 25 84 82
c0 53 -30 82 -77 82c-48 0 -81 -33 -81 -99v-503h-120v326h-52z" />
    <glyph glyph-name="agrave" unicode="&#xe0;" horiz-adv-x="514" 
d="M162 348l-105 24c16 83 89 140 192 140c120 0 212 -50 212 -211v-301h-102l-13 64c-35 -43 -83 -72 -155 -72c-86 0 -153 53 -153 153s88 165 215 165h84v22c0 56 -42 74 -88 74c-35 0 -71 -11 -87 -58zM168 147c0 -24 17 -49 52 -49c57 0 117 39 117 104v10h-83
c-53 0 -86 -20 -86 -65zM270 708l64 -148h-95l-137 148h168z" />
    <glyph glyph-name="aacute" unicode="&#xe1;" horiz-adv-x="514" 
d="M162 348l-105 24c16 83 89 140 192 140c120 0 212 -50 212 -211v-301h-102l-13 64c-35 -43 -83 -72 -155 -72c-86 0 -153 53 -153 153s88 165 215 165h84v22c0 56 -42 74 -88 74c-35 0 -71 -11 -87 -58zM168 147c0 -24 17 -49 52 -49c57 0 117 39 117 104v10h-83
c-53 0 -86 -20 -86 -65zM173 560l64 148h168l-137 -148h-95z" />
    <glyph glyph-name="acircumflex" unicode="&#xe2;" horiz-adv-x="514" 
d="M162 348l-105 24c16 83 89 140 192 140c120 0 212 -50 212 -211v-301h-102l-13 64c-35 -43 -83 -72 -155 -72c-86 0 -153 53 -153 153s88 165 215 165h84v22c0 56 -42 74 -88 74c-35 0 -71 -11 -87 -58zM168 147c0 -24 17 -49 52 -49c57 0 117 39 117 104v10h-83
c-53 0 -86 -20 -86 -65zM68 566l171 186h34l171 -186h-120l-68 74l-68 -74h-120z" />
    <glyph glyph-name="atilde" unicode="&#xe3;" horiz-adv-x="514" 
d="M162 348l-105 24c16 83 89 140 192 140c120 0 212 -50 212 -211v-301h-102l-13 64c-35 -43 -83 -72 -155 -72c-86 0 -153 53 -153 153s88 165 215 165h84v22c0 56 -42 74 -88 74c-35 0 -71 -11 -87 -58zM168 147c0 -24 17 -49 52 -49c57 0 117 39 117 104v10h-83
c-53 0 -86 -20 -86 -65zM131 569l-65 55c23 51 72 87 123 87c66 0 85 -41 133 -41c22 0 45 17 64 43l65 -55c-23 -51 -72 -87 -123 -87c-66 0 -85 41 -133 41c-22 0 -45 -17 -64 -43z" />
    <glyph glyph-name="adieresis" unicode="&#xe4;" horiz-adv-x="514" 
d="M162 348l-105 24c16 83 89 140 192 140c120 0 212 -50 212 -211v-301h-102l-13 64c-35 -43 -83 -72 -155 -72c-86 0 -153 53 -153 153s88 165 215 165h84v22c0 56 -42 74 -88 74c-35 0 -71 -11 -87 -58zM168 147c0 -24 17 -49 52 -49c57 0 117 39 117 104v10h-83
c-53 0 -86 -20 -86 -65zM79 651c0 41 29 71 71 71s71 -30 71 -71s-29 -71 -71 -71s-71 30 -71 71zM286 651c0 41 29 71 71 71s71 -30 71 -71s-29 -71 -71 -71s-71 30 -71 71z" />
    <glyph glyph-name="aring" unicode="&#xe5;" horiz-adv-x="514" 
d="M162 348l-105 24c16 83 89 140 192 140c120 0 212 -50 212 -211v-301h-102l-13 64c-35 -43 -83 -72 -155 -72c-86 0 -153 53 -153 153s88 165 215 165h84v22c0 56 -42 74 -88 74c-35 0 -71 -11 -87 -58zM168 147c0 -24 17 -49 52 -49c57 0 117 39 117 104v10h-83
c-53 0 -86 -20 -86 -65zM148 655c0 58 43 102 103 102s103 -44 103 -102s-43 -102 -103 -102s-103 44 -103 102zM221 655c0 -19 11 -32 30 -32s30 13 30 32s-11 32 -30 32s-30 -13 -30 -32z" />
    <glyph glyph-name="ae" unicode="&#xe6;" horiz-adv-x="850" 
d="M814 263v-51h-347c3 -56 42 -114 119 -114c57 0 92 26 122 78l100 -37c-39 -89 -107 -147 -229 -147c-98 0 -162 45 -200 105c-53 -80 -117 -105 -188 -105c-85 0 -153 53 -153 153s88 165 215 165h84v22c0 56 -42 74 -88 74c-35 0 -71 -11 -87 -58l-105 24
c16 83 89 140 192 140c68 0 128 -17 166 -61c39 37 92 61 164 61c168 0 235 -139 235 -249zM168 147c0 -24 17 -49 52 -49c57 0 117 39 117 104v10h-83c-53 0 -86 -21 -86 -65zM579 406c-63 0 -101 -48 -110 -96h218c-11 50 -42 96 -108 96z" />
    <glyph glyph-name="ccedilla" unicode="&#xe7;" horiz-adv-x="551" 
d="M407 181l111 -45c-38 -95 -117 -144 -229 -144c-164 0 -246 118 -246 260s82 260 246 260c112 0 191 -49 229 -144l-111 -45c-26 53 -62 83 -118 83c-78 0 -116 -65 -116 -154s38 -154 116 -154c56 0 92 30 118 83zM373 -60l-83 -206l-148 66l141 140h90z" />
    <glyph glyph-name="egrave" unicode="&#xe8;" horiz-adv-x="556" 
d="M520 263v-51h-347c3 -56 42 -114 119 -114c57 0 92 26 122 78l100 -37c-39 -89 -107 -147 -229 -147c-173 0 -242 141 -242 260s69 260 242 260c168 0 235 -139 235 -249zM285 406c-63 0 -100 -48 -109 -96h217c-11 50 -42 96 -108 96zM288 708l64 -148h-95l-137 148h168
z" />
    <glyph glyph-name="eacute" unicode="&#xe9;" horiz-adv-x="556" 
d="M520 263v-51h-347c3 -56 42 -114 119 -114c57 0 92 26 122 78l100 -37c-39 -89 -107 -147 -229 -147c-173 0 -242 141 -242 260s69 260 242 260c168 0 235 -139 235 -249zM285 406c-63 0 -100 -48 -109 -96h217c-11 50 -42 96 -108 96zM198 560l64 148h168l-137 -148h-95
z" />
    <glyph glyph-name="ecircumflex" unicode="&#xea;" horiz-adv-x="556" 
d="M520 263v-51h-347c3 -56 42 -114 119 -114c57 0 92 26 122 78l100 -37c-39 -89 -107 -147 -229 -147c-173 0 -242 141 -242 260s69 260 242 260c168 0 235 -139 235 -249zM285 406c-63 0 -100 -48 -109 -96h217c-11 50 -42 96 -108 96zM97 566l171 186h34l171 -186h-120
l-68 74l-68 -74h-120z" />
    <glyph glyph-name="edieresis" unicode="&#xeb;" horiz-adv-x="556" 
d="M520 263v-51h-347c3 -56 42 -114 119 -114c57 0 92 26 122 78l100 -37c-39 -89 -107 -147 -229 -147c-173 0 -242 141 -242 260s69 260 242 260c168 0 235 -139 235 -249zM285 406c-63 0 -100 -48 -109 -96h217c-11 50 -42 96 -108 96zM111 651c0 41 29 71 71 71
s71 -30 71 -71s-29 -71 -71 -71s-71 30 -71 71zM318 651c0 41 29 71 71 71s71 -30 71 -71s-29 -71 -71 -71s-71 30 -71 71z" />
    <glyph glyph-name="igrave" unicode="&#xec;" horiz-adv-x="260" 
d="M68 504h124v-504h-124v504zM152 708l64 -148h-95l-137 148h168z" />
    <glyph glyph-name="iacute" unicode="&#xed;" horiz-adv-x="260" 
d="M68 504h124v-504h-124v504zM44 560l64 148h168l-137 -148h-95z" />
    <glyph glyph-name="icircumflex" unicode="&#xee;" horiz-adv-x="260" 
d="M68 504h124v-504h-124v504zM-57 566l171 186h34l171 -186h-120l-68 74l-68 -74h-120z" />
    <glyph glyph-name="idieresis" unicode="&#xef;" horiz-adv-x="260" 
d="M68 504h124v-504h-124v504zM-44 651c0 41 29 71 71 71s71 -30 71 -71s-29 -71 -71 -71s-71 30 -71 71zM163 651c0 41 29 71 71 71s71 -30 71 -71s-29 -71 -71 -71s-71 30 -71 71z" />
    <glyph glyph-name="eth" unicode="&#xf0;" horiz-adv-x="584" 
d="M259 534l-75 53l29 42c-29 15 -53 27 -86 39l62 91c30 -13 58 -27 84 -42l33 48l76 -52l-32 -47c128 -91 191 -211 191 -390c0 -167 -88 -284 -249 -284c-162 0 -249 114 -249 260s87 260 249 260c29 0 58 -8 81 -20c-20 35 -47 64 -82 89zM173 252
c0 -83 39 -154 119 -154s119 71 119 154c-1 83 -39 154 -119 154s-119 -71 -119 -154z" />
    <glyph glyph-name="ntilde" unicode="&#xf1;" 
d="M80 504h124v-81c37 53 91 89 156 89c90 0 155 -51 155 -152v-360h-124v323c0 60 -30 83 -72 83c-60 0 -115 -72 -115 -205v-201h-124v504zM178 569l-65 55c23 51 72 87 123 87c66 0 85 -41 133 -41c22 0 45 17 64 43l65 -55c-23 -51 -72 -87 -123 -87
c-66 0 -85 41 -133 41c-22 0 -45 -17 -64 -43z" />
    <glyph glyph-name="ograve" unicode="&#xf2;" horiz-adv-x="598" 
d="M43 252c0 146 94 260 256 260s256 -114 256 -260s-94 -260 -256 -260s-256 114 -256 260zM173 252c0 -83 46 -154 126 -154s126 71 126 154s-46 154 -126 154s-126 -71 -126 -154zM311 708l64 -148h-95l-137 148h168z" />
    <glyph glyph-name="oacute" unicode="&#xf3;" horiz-adv-x="598" 
d="M43 252c0 146 94 260 256 260s256 -114 256 -260s-94 -260 -256 -260s-256 114 -256 260zM173 252c0 -83 46 -154 126 -154s126 71 126 154s-46 154 -126 154s-126 -71 -126 -154zM213 560l64 148h168l-137 -148h-95z" />
    <glyph glyph-name="ocircumflex" unicode="&#xf4;" horiz-adv-x="598" 
d="M43 252c0 146 94 260 256 260s256 -114 256 -260s-94 -260 -256 -260s-256 114 -256 260zM173 252c0 -83 46 -154 126 -154s126 71 126 154s-46 154 -126 154s-126 -71 -126 -154zM111 566l171 186h34l171 -186h-120l-68 74l-68 -74h-120z" />
    <glyph glyph-name="otilde" unicode="&#xf5;" horiz-adv-x="598" 
d="M43 252c0 146 94 260 256 260s256 -114 256 -260s-94 -260 -256 -260s-256 114 -256 260zM173 252c0 -83 46 -154 126 -154s126 71 126 154s-46 154 -126 154s-126 -71 -126 -154zM172 569l-65 55c23 51 72 87 123 87c66 0 85 -41 133 -41c22 0 45 17 64 43l65 -55
c-23 -51 -72 -87 -123 -87c-66 0 -85 41 -133 41c-22 0 -45 -17 -64 -43z" />
    <glyph glyph-name="odieresis" unicode="&#xf6;" horiz-adv-x="598" 
d="M43 252c0 146 94 260 256 260s256 -114 256 -260s-94 -260 -256 -260s-256 114 -256 260zM173 252c0 -83 46 -154 126 -154s126 71 126 154s-46 154 -126 154s-126 -71 -126 -154zM125 651c0 41 29 71 71 71s71 -30 71 -71s-29 -71 -71 -71s-71 30 -71 71zM332 651
c0 41 29 71 71 71s71 -30 71 -71s-29 -71 -71 -71s-71 30 -71 71z" />
    <glyph glyph-name="divide" unicode="&#xf7;" horiz-adv-x="560" 
d="M196 124c0 48 36 84 84 84s84 -36 84 -84s-36 -84 -84 -84s-84 36 -84 84zM196 506c0 48 36 84 84 84s84 -36 84 -84s-36 -84 -84 -84s-84 36 -84 84zM42 261v108h476v-108h-476z" />
    <glyph glyph-name="oslash" unicode="&#xf8;" horiz-adv-x="598" 
d="M43 252c0 146 94 260 256 260c44 0 84 -9 117 -24l60 76l86 -63l-62 -79c36 -45 55 -104 55 -170c0 -146 -94 -260 -256 -260c-44 0 -84 9 -117 24l-60 -76l-86 63l62 79c-36 45 -55 104 -55 170zM425 252c0 22 -3 43 -10 62l-162 -207c14 -6 29 -9 46 -9
c80 0 126 71 126 154zM173 252c0 -22 3 -43 10 -62l162 207c-14 6 -29 9 -46 9c-80 0 -126 -71 -126 -154z" />
    <glyph glyph-name="ugrave" unicode="&#xf9;" 
d="M507 0h-124v81c-37 -53 -91 -89 -156 -89c-90 0 -155 51 -155 152v360h124v-323c0 -60 30 -83 72 -83c60 0 115 72 115 205v201h124v-504zM289 708l64 -148h-95l-137 148h168z" />
    <glyph glyph-name="uacute" unicode="&#xfa;" 
d="M507 0h-124v81c-37 -53 -91 -89 -156 -89c-90 0 -155 51 -155 152v360h124v-323c0 -60 30 -83 72 -83c60 0 115 72 115 205v201h124v-504zM222 560l64 148h168l-137 -148h-95z" />
    <glyph glyph-name="ucircumflex" unicode="&#xfb;" 
d="M507 0h-124v81c-37 -53 -91 -89 -156 -89c-90 0 -155 51 -155 152v360h124v-323c0 -60 30 -83 72 -83c60 0 115 72 115 205v201h124v-504zM103 566l171 186h34l171 -186h-120l-68 74l-68 -74h-120z" />
    <glyph glyph-name="udieresis" unicode="&#xfc;" 
d="M507 0h-124v81c-37 -53 -91 -89 -156 -89c-90 0 -155 51 -155 152v360h124v-323c0 -60 30 -83 72 -83c60 0 115 72 115 205v201h124v-504zM124 651c0 41 29 71 71 71s71 -30 71 -71s-29 -71 -71 -71s-71 30 -71 71zM331 651c0 41 29 71 71 71s71 -30 71 -71
s-29 -71 -71 -71s-71 30 -71 71z" />
    <glyph glyph-name="yacute" unicode="&#xfd;" horiz-adv-x="481" 
d="M3 504h125l117 -316l110 316h124l-260 -708h-120l87 236zM167 560l64 148h168l-137 -148h-95z" />
    <glyph glyph-name="thorn" unicode="&#xfe;" horiz-adv-x="599" 
d="M556 252c0 -155 -78 -260 -230 -260c-62 0 -108 34 -122 60v-256h-124v912h124v-250c22 28 71 54 122 54c152 0 230 -105 230 -260zM426 252c0 100 -52 154 -117 154s-116 -54 -116 -154s51 -154 116 -154s117 54 117 154z" />
    <glyph glyph-name="ydieresis" unicode="&#xff;" horiz-adv-x="481" 
d="M3 504h125l117 -316l110 316h124l-260 -708h-120l87 236zM69 651c0 41 29 71 71 71s71 -30 71 -71s-29 -71 -71 -71s-71 30 -71 71zM276 651c0 41 29 71 71 71s71 -30 71 -71s-29 -71 -71 -71s-71 30 -71 71z" />
    <glyph glyph-name="dotlessi" unicode="&#x131;" horiz-adv-x="260" 
d="M68 504h124v-504h-124v504z" />
    <glyph glyph-name="Lslash" unicode="&#x141;" horiz-adv-x="551" 
d="M110 700h130v-268l101 56l53 -95l-154 -85v-188h297v-120h-427v236l-54 -30l-53 95l107 59v340z" />
    <glyph glyph-name="lslash" unicode="&#x142;" horiz-adv-x="368" 
d="M120 708h124v-249l49 27l53 -95l-102 -56v-335h-124v267l-49 -26l-53 95l102 55v317z" />
    <glyph glyph-name="OE" unicode="&#x152;" horiz-adv-x="1062" 
d="M577 700h433v-120h-303v-147h243v-120h-243v-193h313v-120h-443v52c-56 -40 -126 -60 -199 -60c-177 0 -330 115 -330 358s153 358 330 358c73 0 143 -20 199 -61v53zM378 588c-105 0 -198 -72 -198 -238s93 -238 198 -238s199 72 199 238s-94 238 -199 238z" />
    <glyph glyph-name="oe" unicode="&#x153;" horiz-adv-x="938" 
d="M902 263v-51h-347c3 -56 42 -114 119 -114c57 0 92 26 122 78l100 -37c-39 -89 -107 -147 -229 -147c-81 0 -140 31 -179 76c-44 -47 -108 -76 -189 -76c-162 0 -256 114 -256 260s94 260 256 260c81 0 146 -29 190 -76c39 45 97 76 178 76c168 0 235 -139 235 -249z
M173 252c0 -83 46 -154 126 -154s126 71 126 154s-48 154 -126 154c-80 0 -126 -71 -126 -154zM667 406c-63 0 -100 -48 -109 -96h217c-11 50 -42 96 -108 96z" />
    <glyph glyph-name="Scaron" unicode="&#x160;" horiz-adv-x="537" 
d="M470 581l-105 -67c-27 52 -56 74 -97 74c-38 0 -67 -27 -67 -64c0 -122 299 -106 299 -314c0 -137 -90 -218 -224 -218c-127 0 -219 89 -241 196l105 66c21 -75 63 -142 139 -142c54 0 91 27 91 91c0 116 -293 93 -293 315c0 106 81 190 191 190c93 0 164 -46 202 -127z
M251 762l-171 186h120l68 -74l68 74h120l-171 -186h-34z" />
    <glyph glyph-name="scaron" unicode="&#x161;" horiz-adv-x="462" 
d="M231 512c68 0 127 -33 158 -82l-74 -68c-23 30 -56 44 -84 44c-24 0 -46 -14 -46 -42c0 -22 18 -38 48 -49c69 -25 182 -47 182 -155c0 -91 -70 -168 -179 -168c-105 0 -175 74 -200 136l99 53c18 -49 52 -83 101 -83c38 0 62 17 62 54c0 42 -65 51 -126 77
c-55 23 -102 58 -102 136s63 147 161 147zM216 566l-171 186h120l68 -74l68 74h120l-171 -186h-34z" />
    <glyph glyph-name="Ydieresis" unicode="&#x178;" horiz-adv-x="534" 
d="M0 700h140l127 -272l127 272h140l-202 -402v-298h-130v298zM93 847c0 41 29 71 71 71s71 -30 71 -71s-29 -71 -71 -71s-71 30 -71 71zM300 847c0 41 29 71 71 71s71 -30 71 -71s-29 -71 -71 -71s-71 30 -71 71z" />
    <glyph glyph-name="Zcaron" unicode="&#x17d;" horiz-adv-x="558" 
d="M47 580v120h464v-60l-300 -520h314v-120h-495v60l303 520h-286zM259 762l-171 186h120l68 -74l68 74h120l-171 -186h-34z" />
    <glyph glyph-name="zcaron" unicode="&#x17e;" horiz-adv-x="465" 
d="M57 398v106h356v-48l-216 -350h230v-106h-386v48l218 350h-202zM220 566l-171 186h120l68 -74l68 74h120l-171 -186h-34z" />
    <glyph glyph-name="florin" unicode="&#x192;" horiz-adv-x="483" 
d="M104 398l21 106h80l5 26c24 123 104 178 208 178c39 0 71 -8 90 -20l-46 -100c-19 9 -36 14 -57 14c-35 0 -61 -18 -70 -63l-6 -35h108l-21 -106h-108l-85 -432c-24 -123 -104 -178 -208 -178c-39 0 -71 8 -90 20l46 100c19 -9 36 -14 57 -14c35 0 61 18 70 63l85 441
h-79z" />
    <glyph glyph-name="circumflex" unicode="&#x2c6;" horiz-adv-x="428" 
d="M26 566l171 186h34l171 -186h-120l-68 74l-68 -74h-120z" />
    <glyph glyph-name="caron" unicode="&#x2c7;" horiz-adv-x="428" 
d="M197 566l-171 186h120l68 -74l68 74h120l-171 -186h-34z" />
    <glyph glyph-name="breve" unicode="&#x2d8;" horiz-adv-x="259" 
d="M8 700h91c0 -16 11 -28 27 -28s27 12 27 28h91c0 -58 -45 -109 -118 -109s-118 51 -118 109z" />
    <glyph glyph-name="dotaccent" unicode="&#x2d9;" horiz-adv-x="288" 
d="M64 649c0 45 34 80 80 80s80 -35 80 -80s-34 -80 -80 -80s-80 35 -80 80z" />
    <glyph glyph-name="ring" unicode="&#x2da;" horiz-adv-x="234" 
d="M14 655c0 58 43 102 103 102s103 -44 103 -102s-43 -102 -103 -102s-103 44 -103 102zM87 655c0 -19 11 -32 30 -32s30 13 30 32s-11 32 -30 32s-30 -13 -30 -32z" />
    <glyph glyph-name="ogonek" unicode="&#x2db;" horiz-adv-x="229" 
d="M71 0h80c-34 -29 -58 -57 -58 -78c0 -18 9 -26 26 -26c19 0 29 12 49 39l53 -43c-30 -49 -62 -77 -116 -77c-57 0 -97 33 -97 90c0 39 28 75 63 95z" />
    <glyph glyph-name="tilde" unicode="&#x2dc;" horiz-adv-x="415" 
d="M80 569l-65 55c23 51 72 87 123 87c66 0 85 -41 133 -41c22 0 45 17 64 43l65 -55c-23 -51 -72 -87 -123 -87c-66 0 -85 41 -133 41c-22 0 -45 -17 -64 -43z" />
    <glyph glyph-name="hungarumlaut" unicode="&#x2dd;" horiz-adv-x="463" 
d="M18 560l64 148h168l-137 -148h-95zM221 560l64 148h168l-137 -148h-95z" />
    <glyph glyph-name="Delta" unicode="&#x2206;" horiz-adv-x="696" 
d="M49 0v32l248 668h102l248 -668v-32h-598zM348 548l-153 -440h306z" />
    <glyph glyph-name="Omega" unicode="&#x2126;" horiz-adv-x="696" 
d="M627 108v-108h-245v40s99 200 99 400c0 98 -47 160 -133 160s-133 -62 -133 -160c0 -200 99 -400 99 -400v-40h-245v108h130s-108 158 -108 332c0 154 96 268 257 268s257 -114 257 -268c0 -174 -108 -332 -108 -332h130z" />
    <glyph glyph-name="endash" unicode="&#x2013;" horiz-adv-x="585" 
d="M65 263v108h455v-108h-455z" />
    <glyph glyph-name="emdash" unicode="&#x2014;" horiz-adv-x="771" 
d="M65 263v108h641v-108h-641z" />
    <glyph glyph-name="quoteleft" unicode="&#x2018;" horiz-adv-x="334" 
d="M213 708l78 -244h-92l-149 244h163z" />
    <glyph glyph-name="quoteright" unicode="&#x2019;" horiz-adv-x="334" 
d="M50 464l78 244h163l-149 -244h-92z" />
    <glyph glyph-name="quotesinglbase" unicode="&#x201a;" horiz-adv-x="334" 
d="M43 -14l78 244h163l-149 -244h-92z" />
    <glyph glyph-name="quotedblleft" unicode="&#x201c;" horiz-adv-x="554" 
d="M433 708l78 -244h-92l-149 244h163zM213 708l78 -244h-92l-149 244h163z" />
    <glyph glyph-name="quotedblright" unicode="&#x201d;" horiz-adv-x="554" 
d="M43 464l78 244h163l-149 -244h-92zM263 464l78 244h163l-149 -244h-92z" />
    <glyph glyph-name="quotedblbase" unicode="&#x201e;" horiz-adv-x="554" 
d="M43 -14l78 244h163l-149 -244h-92zM263 -14l78 244h163l-149 -244h-92z" />
    <glyph glyph-name="dagger" unicode="&#x2020;" horiz-adv-x="524" 
d="M52 396v108h149v246h122v-246h149v-108h-149v-446h-122v446h-149z" />
    <glyph glyph-name="daggerdbl" unicode="&#x2021;" horiz-adv-x="524" 
d="M52 396v108h149v246h122v-246h149v-108h-149v-92h149v-108h-149v-246h-122v246h-149v108h149v92h-149z" />
    <glyph glyph-name="bullet" unicode="&#x2022;" horiz-adv-x="392" 
d="M78 330c0 65 53 118 118 118s118 -53 118 -118s-53 -118 -118 -118s-118 53 -118 118z" />
    <glyph glyph-name="perthousand" unicode="&#x2030;" horiz-adv-x="1237" 
d="M52 548c0 90 69 160 164 160s164 -70 164 -160s-69 -160 -164 -160s-164 70 -164 160zM154 548c0 -37 23 -65 62 -65s62 28 62 65s-23 65 -62 65s-62 -28 -62 -65zM458 152c0 90 69 160 164 160s164 -70 164 -160s-69 -160 -164 -160s-164 70 -164 160zM560 152
c0 -37 23 -65 62 -65s62 28 62 65s-23 65 -62 65s-62 -28 -62 -65zM857 152c0 90 69 160 164 160s164 -70 164 -160s-69 -160 -164 -160s-164 70 -164 160zM959 152c0 -37 23 -65 62 -65s62 28 62 65s-23 65 -62 65s-62 -28 -62 -65zM658 738l72 -57l-538 -719l-72 58z" />
    <glyph glyph-name="guilsinglleft" unicode="&#x2039;" horiz-adv-x="403" 
d="M44 269v82l309 218v-128l-185 -131l185 -131v-128z" />
    <glyph glyph-name="guilsinglright" unicode="&#x203a;" horiz-adv-x="403" 
d="M359 351v-82l-309 -218v128l185 131l-185 131v128z" />
    <glyph glyph-name="fraction" unicode="&#x2044;" horiz-adv-x="616" 
d="M541 738l72 -57l-538 -719l-72 58z" />
    <glyph glyph-name="Euro" unicode="&#x20ac;" horiz-adv-x="644" 
d="M25 376l50 108h50c34 148 137 224 267 224c104 0 176 -43 216 -117l-108 -64c-22 42 -62 65 -108 65c-66 0 -117 -31 -140 -108h210l-50 -108h-174v-52h224l-50 -108h-160c23 -78 74 -108 140 -108c46 0 86 23 108 65l108 -64c-40 -74 -112 -117 -216 -117
c-130 0 -233 75 -267 224h-100l50 108h39v52h-89z" />
    <glyph glyph-name="trademark" unicode="&#x2122;" horiz-adv-x="852" 
d="M23 610v90h305v-90h-104v-310h-97v310h-104zM388 300v400h97l97 -233l97 233h97v-400h-97v193l-65 -156h-64l-65 156v-193h-97z" />
    <glyph glyph-name="partialdiff" unicode="&#x2202;" horiz-adv-x="630" 
d="M215 528l-113 35c25 82 118 145 216 145c182 0 255 -118 255 -340c0 -201 -79 -376 -311 -376c-126 0 -218 86 -218 217c0 175 131 303 311 303c29 0 62 -8 87 -22c-12 75 -46 112 -112 112c-45 0 -89 -20 -115 -74zM344 406c-97 0 -163 -97 -163 -189
c0 -61 28 -119 101 -119c98 0 151 91 151 189c0 77 -24 119 -89 119z" />
    <glyph glyph-name="product" unicode="&#x220f;" horiz-adv-x="585" 
d="M88 0v700h409v-700h-124v592h-161v-592h-124z" />
    <glyph glyph-name="summation" unicode="&#x2211;" horiz-adv-x="553" 
d="M493 0h-441v55l186 295l-186 295v55h441v-108h-272l141 -228v-28l-141 -228h272v-108z" />
    <glyph glyph-name="minus" unicode="&#x2212;" horiz-adv-x="594" 
d="M60 263v108h476v-108h-476z" />
    <glyph glyph-name="radical" unicode="&#x221a;" horiz-adv-x="601" 
d="M52 277v112h184l71 -226l155 545h120l-220 -708h-102l-92 277h-116z" />
    <glyph glyph-name="infinity" unicode="&#x221e;" horiz-adv-x="884" 
d="M640 168c-67 0 -150 25 -198 95c-48 -70 -131 -95 -198 -95c-125 0 -193 78 -193 191s68 191 193 191c67 0 150 -25 198 -95c48 70 131 95 198 95c125 0 193 -78 193 -191s-68 -191 -193 -191zM261 272c35 0 82 22 116 87c-34 65 -81 87 -116 87c-52 0 -90 -28 -90 -87
s38 -87 90 -87zM623 272c52 0 90 28 90 87s-38 87 -90 87c-35 0 -82 -22 -116 -87c34 -65 81 -87 116 -87z" />
    <glyph glyph-name="integral" unicode="&#x222b;" horiz-adv-x="483" 
d="M98 -43l112 573c25 127 100 178 204 178c39 0 75 -8 94 -20l-46 -100c-19 9 -36 14 -57 14c-35 0 -61 -18 -70 -63l-112 -573c-25 -128 -97 -178 -201 -178c-39 0 -78 8 -97 20l46 100c19 -9 36 -14 57 -14c35 0 61 18 70 63z" />
    <glyph glyph-name="approxequal" unicode="&#x2248;" horiz-adv-x="629" 
d="M127 144l-64 69c24 57 83 111 151 111c85 0 131 -59 200 -59c38 0 69 23 91 51l64 -69c-24 -57 -83 -111 -151 -111c-85 0 -131 59 -200 59c-38 0 -69 -23 -91 -51zM124 351l-64 69c24 57 83 111 151 111c85 0 131 -59 200 -59c38 0 69 23 91 51l64 -69
c-24 -57 -83 -111 -151 -111c-85 0 -131 59 -200 59c-38 0 -69 -23 -91 -51z" />
    <glyph glyph-name="notequal" unicode="&#x2260;" horiz-adv-x="577" 
d="M70 346v108h238l59 103l94 -52l-29 -51h75v-108h-136l-41 -72h177v-108h-238l-59 -103l-94 52l29 51h-75v108h136l41 72h-177z" />
    <glyph glyph-name="pi" unicode="&#x3c0;" horiz-adv-x="620" 
d="M50 396v108h519v-108h-83v-396h-124v396h-105v-396h-124v396h-83z" />
    <glyph glyph-name="lessequal" unicode="&#x2264;" horiz-adv-x="575" 
d="M91 344v116l391 204v-131l-252 -131l252 -131v-131zM49 0v108h476v-108h-476z" />
    <glyph glyph-name="greaterequal" unicode="&#x2265;" horiz-adv-x="575" 
d="M484 460v-116l-391 -204v131l252 131l-252 131v131zM526 108v-108h-476v108h476z" />
    <glyph glyph-name="lozenge" unicode="&#x25ca;" horiz-adv-x="606" 
d="M243 0l-182 350l182 350h120l182 -350l-182 -350h-120zM303 106l118 244l-118 244l-118 -244z" />
    <glyph glyph-name="apple" unicode="&#xf8ff;" horiz-adv-x="772" 
d="M682 617v-595c0 -11 -9 -22 -22 -22c-2 0 -3 0 -7 1l-267 77l-267 -77c-4 -1 -5 -1 -7 -1c-13 0 -22 11 -22 22v595c0 10 7 19 16 22l270 78c3 1 8 2 10 2s7 -1 10 -2l270 -78c9 -3 16 -12 16 -22zM364 366v303l-230 -67c8 -125 106 -225 230 -236zM408 669v-303
c124 11 222 111 230 236zM133 463v-412l231 67v204c-98 8 -183 62 -231 141zM639 51v412c-49 -79 -133 -133 -231 -141v-204z" />
    <glyph glyph-name="No" horiz-adv-x="1270" 
d="M484 700h130v-700h-137l-257 462v-462h-130v700h137l257 -462v462zM744 0v108h455v-108h-455zM715 448c0 146 94 260 256 260s256 -114 256 -260s-94 -260 -256 -260s-256 114 -256 260zM845 448c0 -83 46 -154 126 -154s126 71 126 154s-46 154 -126 154
s-126 -71 -126 -154z" />
    <glyph glyph-name="foursuperior" unicode="&#x2074;" horiz-adv-x="351" 
d="M195 300v65h-167v45l161 290h95v-252h43v-83h-43v-65h-89zM132 448h63v122z" />
    <glyph glyph-name="fivesuperior" unicode="&#x2075;" horiz-adv-x="355" 
d="M42 414l87 10c6 -28 26 -45 51 -45c35 0 54 22 54 59c0 36 -18 55 -54 55c-22 0 -40 -7 -58 -23l-71 15l21 215h230v-83h-155l-10 -67c16 9 38 15 63 15c84 0 127 -56 127 -127c0 -89 -58 -142 -147 -142c-71 0 -131 50 -138 118z" />
    <glyph glyph-name="sixsuperior" unicode="&#x2076;" horiz-adv-x="374" 
d="M280 704l-89 -148c5 2 11 3 18 3c62 0 121 -39 121 -131c0 -78 -58 -132 -141 -132s-140 53 -140 132c0 27 6 54 18 75l113 201h100zM189 476c-26 0 -47 -18 -47 -48c0 -29 21 -49 47 -49c27 0 47 20 47 49c0 30 -20 48 -47 48z" />
    <glyph glyph-name="sevensuperior" unicode="&#x2077;" horiz-adv-x="316" 
d="M301 700v-35l-150 -365h-95l132 317h-148v83h261z" />
    <glyph glyph-name="eightsuperior" unicode="&#x2078;" horiz-adv-x="362" 
d="M181 704c79 0 125 -52 125 -108c0 -35 -16 -64 -45 -80c28 -13 58 -40 58 -90c0 -79 -55 -130 -138 -130s-138 51 -138 130c0 50 30 77 58 90c-29 16 -45 45 -45 80c0 56 46 108 125 108zM181 473c-28 0 -45 -20 -45 -47s17 -47 45 -47s45 20 45 47s-17 47 -45 47z
M181 637c-26 0 -41 -17 -41 -44s15 -44 41 -44s41 17 41 44s-15 44 -41 44z" />
    <glyph glyph-name="ninesuperior" unicode="&#x2079;" horiz-adv-x="374" 
d="M94 296l89 148c-5 -2 -11 -3 -18 -3c-62 0 -121 39 -121 131c0 78 58 132 141 132s140 -53 140 -132c0 -27 -6 -54 -18 -75l-113 -201h-100zM185 524c26 0 47 18 47 48c0 29 -21 49 -47 49c-27 0 -47 -20 -47 -49c0 -30 20 -48 47 -48z" />
    <glyph glyph-name="zerosuperior" unicode="&#x2070;" horiz-adv-x="414" 
d="M207 704c102 0 166 -73 166 -204c0 -130 -64 -204 -166 -204s-166 74 -166 204c0 131 64 204 166 204zM207 621c-38 0 -74 -32 -74 -121c0 -88 36 -121 74 -121s74 33 74 121c0 89 -36 121 -74 121z" />
    <glyph glyph-name="ellipsis" unicode="&#x2026;" horiz-adv-x="972" 
d="M80 78c0 48 36 84 84 84s84 -36 84 -84s-36 -84 -84 -84s-84 36 -84 84zM402 78c0 48 36 84 84 84s84 -36 84 -84s-36 -84 -84 -84s-84 36 -84 84zM724 78c0 48 36 84 84 84s84 -36 84 -84s-36 -84 -84 -84s-84 36 -84 84z" />
    <glyph glyph-name="zero.tn" horiz-adv-x="572" 
d="M286 708c167 0 258 -134 258 -358s-91 -358 -258 -358s-258 134 -258 358s91 358 258 358zM286 592c-92 0 -134 -86 -134 -242s42 -242 134 -242s134 86 134 242s-42 242 -134 242z" />
    <glyph glyph-name="one.tn" horiz-adv-x="572" 
d="M317 700h55v-700h-126v524l-134 -80v136z" />
    <glyph glyph-name="two.tn" horiz-adv-x="572" 
d="M62 0v50l250 323c42 53 54 87 54 127c0 57 -29 92 -86 92c-50 0 -83 -33 -91 -92l-116 22c7 106 93 186 210 186c133 0 209 -85 209 -203c0 -56 -18 -111 -60 -166l-171 -223h246v-116h-445z" />
    <glyph glyph-name="three.tn" horiz-adv-x="572" 
d="M54 194l121 16c15 -62 50 -102 113 -102c65 0 111 45 111 117c0 81 -47 123 -110 123c-22 0 -40 -4 -61 -15l-50 70l132 181h-223v116h401v-44l-165 -223c9 1 16 2 28 2c108 0 174 -85 174 -208c0 -145 -102 -235 -237 -235c-130 0 -222 85 -234 202z" />
    <glyph glyph-name="four.tn" horiz-adv-x="572" 
d="M334 0v130h-301v64l295 506h132v-454h78v-116h-78v-130h-126zM186 246h148v267z" />
    <glyph glyph-name="five.tn" horiz-adv-x="572" 
d="M61 183l119 22c15 -77 59 -97 105 -97c68 0 104 45 104 124c0 78 -39 121 -110 121c-47 0 -91 -26 -124 -63l-79 16l39 394h360v-116h-257l-16 -146c27 16 61 26 99 26c146 0 214 -95 214 -232c0 -141 -90 -240 -230 -240c-119 0 -212 75 -224 191z" />
    <glyph glyph-name="six.tn" horiz-adv-x="572" 
d="M282 448h16c128 0 226 -92 226 -228c0 -130 -100 -228 -234 -228c-132 0 -234 97 -234 228c0 42 14 88 34 123l204 365h140zM290 332c-60 0 -108 -40 -108 -112c0 -68 49 -112 108 -112c60 0 108 44 108 112c0 72 -48 112 -108 112z" />
    <glyph glyph-name="seven.tn" horiz-adv-x="572" 
d="M496 700v-52l-264 -648h-124l239 584h-275v116h424z" />
    <glyph glyph-name="eight.tn" horiz-adv-x="572" 
d="M286 708c119 0 201 -87 201 -191c0 -57 -24 -107 -66 -140c57 -32 93 -89 93 -168c0 -136 -106 -217 -228 -217s-228 81 -228 217c0 79 35 136 92 168c-42 33 -65 83 -65 140c0 104 82 191 201 191zM286 310c-57 0 -102 -36 -102 -101s45 -101 102 -101s102 36 102 101
s-45 101 -102 101zM286 602c-51 0 -84 -35 -84 -87c0 -53 33 -89 84 -89s84 36 84 89c0 52 -33 87 -84 87z" />
    <glyph glyph-name="nine.tn" horiz-adv-x="572" 
d="M290 252h-16c-128 0 -226 92 -226 228c0 130 100 228 234 228c132 0 234 -97 234 -228c0 -42 -14 -88 -34 -123l-204 -365h-140zM282 368c60 0 108 40 108 112c0 68 -49 112 -108 112c-60 0 -108 -44 -108 -112c0 -72 48 -112 108 -112z" />
    <glyph glyph-name="quotedbl" unicode="&#x22;" horiz-adv-x="491" 
d="M111 459l-31 249h141l-31 -249h-79zM301 459l-31 249h141l-31 -249h-79z" />
    <glyph glyph-name="exclam" unicode="!" horiz-adv-x="360" 
d="M101 700h164l-28 -458h-108zM100 76c0 46 37 84 83 84s83 -38 83 -84s-37 -82 -83 -82s-83 36 -83 82z" />
    <glyph glyph-name="zeroinferior" unicode="&#x2080;" horiz-adv-x="414" 
d="M207 200c102 0 166 -73 166 -204c0 -130 -64 -204 -166 -204s-166 74 -166 204c0 131 64 204 166 204zM207 117c-38 0 -74 -32 -74 -121c0 -88 36 -121 74 -121s74 33 74 121c0 89 -36 121 -74 121z" />
    <glyph glyph-name="oneinferior" unicode="&#x2081;" horiz-adv-x="306" 
d="M189 196h37v-400h-89v278l-85 -38v95z" />
    <glyph glyph-name="twoinferior" unicode="&#x2082;" horiz-adv-x="379" 
d="M53 -204v35l145 177c21 25 27 47 27 68c0 27 -16 41 -38 41s-43 -11 -51 -53l-80 23c8 67 62 113 131 113c77 0 131 -46 131 -122c0 -41 -18 -72 -40 -99l-82 -100h128v-83h-271z" />
    <glyph glyph-name="threeinferior" unicode="&#x2083;" horiz-adv-x="388" 
d="M53 -82l80 10c7 -36 31 -53 58 -53c32 0 49 21 49 59c0 37 -21 53 -48 53c-16 0 -24 -3 -37 -10l-40 50l66 86h-110v83h237v-35l-89 -114c67 0 114 -53 114 -116c0 -82 -45 -139 -140 -139c-82 0 -136 55 -140 126z" />
    <glyph glyph-name="fourinferior" unicode="&#x2084;" horiz-adv-x="351" 
d="M195 -204v65h-167v45l161 290h95v-252h43v-83h-43v-65h-89zM132 -56h63v122z" />
    <glyph glyph-name="fiveinferior" unicode="&#x2085;" horiz-adv-x="355" 
d="M42 -90l87 10c6 -28 26 -45 51 -45c35 0 54 22 54 59c0 36 -18 55 -54 55c-22 0 -40 -7 -58 -23l-71 15l21 215h230v-83h-155l-10 -67c16 9 38 15 63 15c84 0 127 -56 127 -127c0 -89 -58 -142 -147 -142c-71 0 -131 50 -138 118z" />
    <glyph glyph-name="sixinferior" unicode="&#x2086;" horiz-adv-x="374" 
d="M280 200l-89 -148c5 2 11 3 18 3c62 0 121 -39 121 -131c0 -78 -58 -132 -141 -132s-140 53 -140 132c0 27 6 54 18 75l113 201h100zM189 -28c-26 0 -47 -18 -47 -48c0 -29 21 -49 47 -49c27 0 47 20 47 49c0 30 -20 48 -47 48z" />
    <glyph glyph-name="seveninferior" unicode="&#x2087;" horiz-adv-x="316" 
d="M301 196v-35l-150 -365h-95l132 317h-148v83h261z" />
    <glyph glyph-name="eightinferior" unicode="&#x2088;" horiz-adv-x="362" 
d="M181 200c79 0 125 -52 125 -108c0 -35 -16 -64 -45 -80c28 -13 58 -40 58 -90c0 -79 -55 -130 -138 -130s-138 51 -138 130c0 50 30 77 58 90c-29 16 -45 45 -45 80c0 56 46 108 125 108zM181 -31c-28 0 -45 -20 -45 -47s17 -47 45 -47s45 20 45 47s-17 47 -45 47z
M181 133c-26 0 -41 -17 -41 -44s15 -44 41 -44s41 17 41 44s-15 44 -41 44z" />
    <glyph glyph-name="nineinferior" unicode="&#x2089;" horiz-adv-x="374" 
d="M94 -208l89 148c-5 -2 -11 -3 -18 -3c-62 0 -121 39 -121 131c0 78 58 132 141 132s140 -53 140 -132c0 -27 -6 -54 -18 -75l-113 -201h-100zM185 20c26 0 47 18 47 48c0 29 -21 49 -47 49c-27 0 -47 -20 -47 -49c0 -30 20 -48 47 -48z" />
    <glyph glyph-name="onethird" unicode="&#x2153;" horiz-adv-x="891" 
d="M655 738l72 -57l-538 -719l-72 58zM203 700h37v-400h-89v278l-85 -38v95zM556 122l80 10c7 -36 31 -53 58 -53c32 0 49 21 49 59c0 37 -21 53 -48 53c-16 0 -24 -3 -37 -10l-40 50l66 86h-110v83h237v-35l-89 -114c67 0 114 -53 114 -116c0 -82 -45 -139 -140 -139
c-82 0 -136 55 -140 126z" />
    <glyph glyph-name="twothirds" unicode="&#x2154;" horiz-adv-x="919" 
d="M687 738l72 -57l-538 -719l-72 58zM35 300v35l145 177c21 25 27 47 27 68c0 27 -16 41 -38 41s-43 -11 -51 -53l-80 23c8 67 62 113 131 113c77 0 131 -46 131 -122c0 -41 -18 -72 -40 -99l-82 -100h128v-83h-271zM584 122l80 10c7 -36 31 -53 58 -53c32 0 49 21 49 59
c0 37 -21 53 -48 53c-16 0 -24 -3 -37 -10l-40 50l66 86h-110v83h237v-35l-89 -114c67 0 114 -53 114 -116c0 -82 -45 -139 -140 -139c-82 0 -136 55 -140 126z" />
    <glyph glyph-name="oneeighth" unicode="&#x215b;" horiz-adv-x="870" 
d="M656 738l72 -57l-538 -719l-72 58zM203 700h37v-400h-89v278l-85 -38v95zM678 404c79 0 125 -52 125 -108c0 -35 -16 -64 -45 -80c28 -13 58 -40 58 -90c0 -79 -55 -130 -138 -130s-138 51 -138 130c0 50 30 77 58 90c-29 16 -45 45 -45 80c0 56 46 108 125 108zM678 173
c-28 0 -45 -20 -45 -47s17 -47 45 -47s45 20 45 47s-17 47 -45 47zM678 337c-26 0 -41 -17 -41 -44s15 -44 41 -44s41 17 41 44s-15 44 -41 44z" />
    <glyph glyph-name="threeeighths" unicode="&#x215c;" horiz-adv-x="897" 
d="M683 738l72 -57l-538 -719l-72 58zM53 422l80 10c7 -36 31 -53 58 -53c32 0 49 21 49 59c0 37 -21 53 -48 53c-16 0 -24 -3 -37 -10l-40 50l66 86h-110v83h237v-35l-89 -114c67 0 114 -53 114 -116c0 -82 -45 -139 -140 -139c-82 0 -136 55 -140 126zM705 404
c79 0 125 -52 125 -108c0 -35 -16 -64 -45 -80c28 -13 58 -40 58 -90c0 -79 -55 -130 -138 -130s-138 51 -138 130c0 50 30 77 58 90c-29 16 -45 45 -45 80c0 56 46 108 125 108zM705 173c-28 0 -45 -20 -45 -47s17 -47 45 -47s45 20 45 47s-17 47 -45 47zM705 337
c-26 0 -41 -17 -41 -44s15 -44 41 -44s41 17 41 44s-15 44 -41 44z" />
    <glyph glyph-name="fiveeighths" unicode="&#x215d;" horiz-adv-x="897" 
d="M683 738l72 -57l-538 -719l-72 58zM39 414l87 10c6 -28 26 -45 51 -45c35 0 54 22 54 59c0 36 -18 55 -54 55c-22 0 -40 -7 -58 -23l-71 15l21 215h230v-83h-155l-10 -67c16 9 38 15 63 15c84 0 127 -56 127 -127c0 -89 -58 -142 -147 -142c-71 0 -131 50 -138 118z
M705 404c79 0 125 -52 125 -108c0 -35 -16 -64 -45 -80c28 -13 58 -40 58 -90c0 -79 -55 -130 -138 -130s-138 51 -138 130c0 50 30 77 58 90c-29 16 -45 45 -45 80c0 56 46 108 125 108zM705 173c-28 0 -45 -20 -45 -47s17 -47 45 -47s45 20 45 47s-17 47 -45 47zM705 337
c-26 0 -41 -17 -41 -44s15 -44 41 -44s41 17 41 44s-15 44 -41 44z" />
    <glyph glyph-name="seveneighths" unicode="&#x215e;" horiz-adv-x="833" 
d="M618 738l72 -57l-538 -719l-72 58zM311 700v-35l-150 -365h-95l132 317h-148v83h261zM641 404c79 0 125 -52 125 -108c0 -35 -16 -64 -45 -80c28 -13 58 -40 58 -90c0 -79 -55 -130 -138 -130s-138 51 -138 130c0 50 30 77 58 90c-29 16 -45 45 -45 80
c0 56 46 108 125 108zM641 173c-28 0 -45 -20 -45 -47s17 -47 45 -47s45 20 45 47s-17 47 -45 47zM641 337c-26 0 -41 -17 -41 -44s15 -44 41 -44s41 17 41 44s-15 44 -41 44z" />
    <glyph glyph-name="quotedblleft.alt" horiz-adv-x="498" 
d="M205 708l28 -36c-41 -34 -71 -65 -74 -112c42 -16 58 -46 58 -76c0 -47 -34 -79 -83 -79s-81 38 -81 85c0 95 65 163 152 218zM405 708l28 -36c-41 -34 -71 -65 -74 -112c42 -16 58 -46 58 -76c0 -47 -34 -79 -83 -79s-81 38 -81 85c0 95 65 163 152 218z" />
    <glyph glyph-name="quotedblright.alt" horiz-adv-x="498" 
d="M293 405l-28 36c41 34 71 65 74 112c-42 16 -58 46 -58 76c0 47 34 79 83 79s81 -38 81 -85c0 -95 -65 -163 -152 -218zM93 405l-28 36c41 34 71 65 74 112c-42 16 -58 46 -58 76c0 47 34 79 83 79s81 -38 81 -85c0 -95 -65 -163 -152 -218z" />
    <glyph glyph-name="quoteleft.alt" horiz-adv-x="298" 
d="M205 708l28 -36c-41 -34 -71 -65 -74 -112c42 -16 58 -46 58 -76c0 -47 -34 -79 -83 -79s-81 38 -81 85c0 95 65 163 152 218z" />
    <glyph glyph-name="quoteright.alt" horiz-adv-x="298" 
d="M93 405l-28 36c41 34 71 65 74 112c-42 16 -58 46 -58 76c0 47 34 79 83 79s81 -38 81 -85c0 -95 -65 -163 -152 -218z" />
    <glyph glyph-name="quotesinglbase.alt" horiz-adv-x="298" 
d="M93 -122l-28 36c41 34 71 65 74 112c-42 16 -58 46 -58 76c0 47 34 79 83 79s81 -38 81 -85c0 -95 -65 -163 -152 -218z" />
    <glyph glyph-name="quotedblbase.alt" horiz-adv-x="498" 
d="M293 -122l-28 36c41 34 71 65 74 112c-42 16 -58 46 -58 76c0 47 34 79 83 79s81 -38 81 -85c0 -95 -65 -163 -152 -218zM93 -122l-28 36c41 34 71 65 74 112c-42 16 -58 46 -58 76c0 47 34 79 83 79s81 -38 81 -85c0 -95 -65 -163 -152 -218z" />
    <glyph glyph-name="Amacron" unicode="&#x100;" horiz-adv-x="614" 
d="M469 0l-51 165h-222l-51 -165h-140l237 700h130l237 -700h-140zM307 528l-74 -243h148zM173 794v110h269v-110h-269z" />
    <glyph glyph-name="amacron" unicode="&#x101;" horiz-adv-x="514" 
d="M162 348l-105 24c16 83 89 140 192 140c120 0 212 -50 212 -211v-301h-102l-13 64c-35 -43 -83 -72 -155 -72c-86 0 -153 53 -153 153s88 165 215 165h84v22c0 56 -42 74 -88 74c-35 0 -71 -11 -87 -58zM168 147c0 -24 17 -49 52 -49c57 0 117 39 117 104v10h-83
c-53 0 -86 -20 -86 -65zM120 598v110h269v-110h-269z" />
    <glyph glyph-name="Abreve" unicode="&#x102;" horiz-adv-x="614" 
d="M469 0l-51 165h-222l-51 -165h-140l237 700h130l237 -700h-140zM307 528l-74 -243h148zM189 896h91c0 -16 11 -28 27 -28s27 12 27 28h91c0 -58 -45 -109 -118 -109s-118 51 -118 109z" />
    <glyph glyph-name="abreve" unicode="&#x103;" horiz-adv-x="514" 
d="M162 348l-105 24c16 83 89 140 192 140c120 0 212 -50 212 -211v-301h-102l-13 64c-35 -43 -83 -72 -155 -72c-86 0 -153 53 -153 153s88 165 215 165h84v22c0 56 -42 74 -88 74c-35 0 -71 -11 -87 -58zM168 147c0 -24 17 -49 52 -49c57 0 117 39 117 104v10h-83
c-53 0 -86 -20 -86 -65zM139 700h91c0 -16 11 -28 27 -28s27 12 27 28h91c0 -58 -45 -109 -118 -109s-118 51 -118 109z" />
    <glyph glyph-name="Aogonek" unicode="&#x104;" horiz-adv-x="614" 
d="M469 0l-51 165h-222l-51 -165h-140l237 700h130l237 -700c-34 -29 -58 -57 -58 -78c0 -18 9 -26 26 -26c19 0 29 12 49 39l53 -43c-30 -49 -62 -77 -116 -77c-57 0 -97 33 -97 90c0 39 28 75 63 95h-60zM307 528l-74 -243h148z" />
    <glyph glyph-name="aogonek" unicode="&#x105;" horiz-adv-x="514" 
d="M381 0h-22l-13 64c-35 -43 -83 -72 -155 -72c-86 0 -153 53 -153 153s88 165 215 165h84v22c0 56 -42 74 -88 74c-35 0 -71 -11 -87 -58l-105 24c16 83 89 140 192 140c120 0 212 -50 212 -211v-301c-34 -29 -58 -57 -58 -78c0 -18 9 -26 26 -26c19 0 29 12 49 39l53 -43
c-30 -49 -62 -77 -116 -77c-57 0 -97 33 -97 90c0 39 28 75 63 95zM168 147c0 -24 17 -49 52 -49c57 0 117 39 117 104v10h-83c-53 0 -86 -20 -86 -65z" />
    <glyph glyph-name="Aringacute" unicode="&#x1fa;" horiz-adv-x="614" 
d="M469 0l-51 165h-222l-51 -165h-140l237 700h130l237 -700h-140zM307 528l-74 -243h148zM204 825c0 58 43 102 103 102s103 -44 103 -102s-43 -102 -103 -102s-103 44 -103 102zM277 825c0 -19 11 -32 30 -32s30 13 30 32s-11 32 -30 32s-30 -13 -30 -32zM227 956l64 148
h168l-137 -148h-95z" />
    <glyph glyph-name="aringacute" unicode="&#x1fb;" horiz-adv-x="514" 
d="M162 348l-105 24c16 83 89 140 192 140c120 0 212 -50 212 -211v-301h-102l-13 64c-35 -43 -83 -72 -155 -72c-86 0 -153 53 -153 153s88 165 215 165h84v22c0 56 -42 74 -88 74c-35 0 -71 -11 -87 -58zM168 147c0 -24 17 -49 52 -49c57 0 117 39 117 104v10h-83
c-53 0 -86 -20 -86 -65zM151 655c0 58 43 102 103 102s103 -44 103 -102s-43 -102 -103 -102s-103 44 -103 102zM224 655c0 -19 11 -32 30 -32s30 13 30 32s-11 32 -30 32s-30 -13 -30 -32zM175 786l64 148h168l-137 -148h-95z" />
    <glyph glyph-name="AEacute" unicode="&#x1fc;" horiz-adv-x="859" 
d="M314 700h493v-120h-303v-147h243v-120h-243v-193h313v-120h-443v165h-160l-66 -165h-140zM361 528l-98 -243h111v243h-13zM461 756l64 148h168l-137 -148h-95z" />
    <glyph glyph-name="aeacute" unicode="&#x1fd;" horiz-adv-x="850" 
d="M814 263v-51h-347c3 -56 42 -114 119 -114c57 0 92 26 122 78l100 -37c-39 -89 -107 -147 -229 -147c-98 0 -162 45 -200 105c-53 -80 -117 -105 -188 -105c-85 0 -153 53 -153 153s88 165 215 165h84v22c0 56 -42 74 -88 74c-35 0 -71 -11 -87 -58l-105 24
c16 83 89 140 192 140c68 0 128 -17 166 -61c39 37 92 61 164 61c168 0 235 -139 235 -249zM168 147c0 -24 17 -49 52 -49c57 0 117 39 117 104v10h-83c-53 0 -86 -21 -86 -65zM579 406c-63 0 -101 -48 -110 -96h218c-11 50 -42 96 -108 96zM352 560l64 148h168l-137 -148
h-95z" />
    <glyph glyph-name="Cacute" unicode="&#x106;" horiz-adv-x="700" 
d="M669 496l-117 -30c-27 71 -76 122 -173 122c-108 0 -199 -76 -199 -238s91 -238 199 -238c97 0 146 51 173 122l117 -30c-33 -134 -138 -212 -290 -212c-175 0 -331 124 -331 358s156 358 331 358c152 0 257 -78 290 -212zM284 756l64 148h168l-137 -148h-95z" />
    <glyph glyph-name="cacute" unicode="&#x107;" horiz-adv-x="551" 
d="M407 181l111 -45c-38 -95 -117 -144 -229 -144c-164 0 -246 118 -246 260s82 260 246 260c112 0 191 -49 229 -144l-111 -45c-26 53 -62 83 -118 83c-78 0 -116 -65 -116 -154s38 -154 116 -154c56 0 92 30 118 83zM201 560l64 148h168l-137 -148h-95z" />
    <glyph glyph-name="Ccircumflex" unicode="&#x108;" horiz-adv-x="700" 
d="M669 496l-117 -30c-27 71 -76 122 -173 122c-108 0 -199 -76 -199 -238s91 -238 199 -238c97 0 146 51 173 122l117 -30c-33 -134 -138 -212 -290 -212c-175 0 -331 124 -331 358s156 358 331 358c152 0 257 -78 290 -212zM192 762l171 186h34l171 -186h-120l-68 74
l-68 -74h-120z" />
    <glyph glyph-name="ccircumflex" unicode="&#x109;" horiz-adv-x="551" 
d="M407 181l111 -45c-38 -95 -117 -144 -229 -144c-164 0 -246 118 -246 260s82 260 246 260c112 0 191 -49 229 -144l-111 -45c-26 53 -62 83 -118 83c-78 0 -116 -65 -116 -154s38 -154 116 -154c56 0 92 30 118 83zM104 566l171 186h34l171 -186h-120l-68 74l-68 -74
h-120z" />
    <glyph glyph-name="Cdotaccent" unicode="&#x10a;" horiz-adv-x="700" 
d="M669 496l-117 -30c-27 71 -76 122 -173 122c-108 0 -199 -76 -199 -238s91 -238 199 -238c97 0 146 51 173 122l117 -30c-33 -134 -138 -212 -290 -212c-175 0 -331 124 -331 358s156 358 331 358c152 0 257 -78 290 -212zM301 845c0 45 34 80 80 80s80 -35 80 -80
s-34 -80 -80 -80s-80 35 -80 80z" />
    <glyph glyph-name="cdotaccent" unicode="&#x10b;" horiz-adv-x="551" 
d="M407 181l111 -45c-38 -95 -117 -144 -229 -144c-164 0 -246 118 -246 260s82 260 246 260c112 0 191 -49 229 -144l-111 -45c-26 53 -62 83 -118 83c-78 0 -116 -65 -116 -154s38 -154 116 -154c56 0 92 30 118 83zM210 649c0 45 34 80 80 80s80 -35 80 -80
s-34 -80 -80 -80s-80 35 -80 80z" />
    <glyph glyph-name="Ccaron" unicode="&#x10c;" horiz-adv-x="700" 
d="M669 496l-117 -30c-27 71 -76 122 -173 122c-108 0 -199 -76 -199 -238s91 -238 199 -238c97 0 146 51 173 122l117 -30c-33 -134 -138 -212 -290 -212c-175 0 -331 124 -331 358s156 358 331 358c152 0 257 -78 290 -212zM364 762l-171 186h120l68 -74l68 74h120
l-171 -186h-34z" />
    <glyph glyph-name="ccaron" unicode="&#x10d;" horiz-adv-x="551" 
d="M407 181l111 -45c-38 -95 -117 -144 -229 -144c-164 0 -246 118 -246 260s82 260 246 260c112 0 191 -49 229 -144l-111 -45c-26 53 -62 83 -118 83c-78 0 -116 -65 -116 -154s38 -154 116 -154c56 0 92 30 118 83zM273 566l-171 186h120l68 -74l68 74h120l-171 -186h-34
z" />
    <glyph glyph-name="Dcaron" unicode="&#x10e;" horiz-adv-x="683" 
d="M309 0h-219v700h219c165 0 326 -105 326 -350s-161 -350 -326 -350zM220 120h48c112 0 235 44 235 230s-123 230 -235 230h-48v-460zM246 762l-171 186h120l68 -74l68 74h120l-171 -186h-34z" />
    <glyph glyph-name="dcaron" unicode="&#x10f;" horiz-adv-x="821" 
d="M43 252c0 155 78 260 230 260c51 0 100 -26 122 -54v250h124v-708h-124v52c-14 -26 -60 -60 -122 -60c-152 0 -230 105 -230 260zM173 252c0 -100 52 -154 117 -154s116 54 116 154s-51 154 -116 154s-117 -54 -117 -154zM579 464l78 244h163l-149 -244h-92z" />
    <glyph glyph-name="Dcroat" unicode="&#x110;" horiz-adv-x="708" 
d="M22 296v108h93v296h219c165 0 326 -105 326 -350s-161 -350 -326 -350h-219v296h-93zM293 580h-48v-176h93v-108h-93v-176h48c112 0 235 44 235 230s-123 230 -235 230z" />
    <glyph glyph-name="dcroat" unicode="&#x111;" horiz-adv-x="599" 
d="M284 559v92h111v57h124v-57h72v-92h-72v-559h-124v52c-14 -26 -60 -60 -122 -60c-152 0 -230 105 -230 260s78 260 230 260c51 0 100 -26 122 -54v101h-111zM173 252c0 -100 52 -154 117 -154s116 54 116 154s-51 154 -116 154s-117 -54 -117 -154z" />
    <glyph glyph-name="Emacron" unicode="&#x112;" horiz-adv-x="575" 
d="M90 700h433v-120h-303v-147h243v-120h-243v-193h313v-120h-443v700zM181 794v110h269v-110h-269z" />
    <glyph glyph-name="emacron" unicode="&#x113;" horiz-adv-x="556" 
d="M520 263v-51h-347c3 -56 42 -114 119 -114c57 0 92 26 122 78l100 -37c-39 -89 -107 -147 -229 -147c-173 0 -242 141 -242 260s69 260 242 260c168 0 235 -139 235 -249zM285 406c-63 0 -100 -48 -109 -96h217c-11 50 -42 96 -108 96zM151 598v110h269v-110h-269z" />
    <glyph glyph-name="Ebreve" unicode="&#x114;" horiz-adv-x="575" 
d="M90 700h433v-120h-303v-147h243v-120h-243v-193h313v-120h-443v700zM186 896h91c0 -16 11 -28 27 -28s27 12 27 28h91c0 -58 -45 -109 -118 -109s-118 51 -118 109z" />
    <glyph glyph-name="ebreve" unicode="&#x115;" horiz-adv-x="556" 
d="M520 263v-51h-347c3 -56 42 -114 119 -114c57 0 92 26 122 78l100 -37c-39 -89 -107 -147 -229 -147c-173 0 -242 141 -242 260s69 260 242 260c168 0 235 -139 235 -249zM285 406c-63 0 -100 -48 -109 -96h217c-11 50 -42 96 -108 96zM164 700h91c0 -16 11 -28 27 -28
s27 12 27 28h91c0 -58 -45 -109 -118 -109s-118 51 -118 109z" />
    <glyph glyph-name="Edotaccent" unicode="&#x116;" horiz-adv-x="575" 
d="M90 700h433v-120h-303v-147h243v-120h-243v-193h313v-120h-443v700zM223 845c0 45 34 80 80 80s80 -35 80 -80s-34 -80 -80 -80s-80 35 -80 80z" />
    <glyph glyph-name="edotaccent" unicode="&#x117;" horiz-adv-x="556" 
d="M520 263v-51h-347c3 -56 42 -114 119 -114c57 0 92 26 122 78l100 -37c-39 -89 -107 -147 -229 -147c-173 0 -242 141 -242 260s69 260 242 260c168 0 235 -139 235 -249zM285 406c-63 0 -100 -48 -109 -96h217c-11 50 -42 96 -108 96zM206 649c0 45 34 80 80 80
s80 -35 80 -80s-34 -80 -80 -80s-80 35 -80 80z" />
    <glyph glyph-name="Eogonek" unicode="&#x118;" horiz-adv-x="575" 
d="M453 0h-363v700h433v-120h-303v-147h243v-120h-243v-193h313v-120c-34 -29 -58 -57 -58 -78c0 -18 9 -26 26 -26c19 0 29 12 49 39l53 -43c-30 -49 -62 -77 -116 -77c-57 0 -97 33 -97 90c0 39 28 75 63 95z" />
    <glyph glyph-name="eogonek" unicode="&#x119;" horiz-adv-x="556" 
d="M520 263v-51h-347c3 -56 42 -114 119 -114c57 0 92 26 122 78l100 -37c-31 -70 -79 -120 -156 -139c-34 -29 -58 -57 -58 -78c0 -18 9 -26 26 -26c19 0 29 12 49 39l53 -43c-30 -49 -62 -77 -116 -77c-57 0 -97 33 -97 90c0 35 22 67 51 88c-159 9 -223 144 -223 259
c0 119 69 260 242 260c168 0 235 -139 235 -249zM285 406c-63 0 -100 -48 -109 -96h217c-11 50 -42 96 -108 96z" />
    <glyph glyph-name="Ecaron" unicode="&#x11a;" horiz-adv-x="575" 
d="M90 700h433v-120h-303v-147h243v-120h-243v-193h313v-120h-443v700zM289 762l-171 186h120l68 -74l68 74h120l-171 -186h-34z" />
    <glyph glyph-name="ecaron" unicode="&#x11b;" horiz-adv-x="556" 
d="M520 263v-51h-347c3 -56 42 -114 119 -114c57 0 92 26 122 78l100 -37c-39 -89 -107 -147 -229 -147c-173 0 -242 141 -242 260s69 260 242 260c168 0 235 -139 235 -249zM285 406c-63 0 -100 -48 -109 -96h217c-11 50 -42 96 -108 96zM268 566l-171 186h120l68 -74
l68 74h120l-171 -186h-34z" />
    <glyph glyph-name="uni018E" unicode="&#x18e;" horiz-adv-x="575" 
d="M485 0h-433v120h303v147h-243v120h243v193h-313v120h443v-700z" />
    <glyph glyph-name="uni018F" unicode="&#x18f;" horiz-adv-x="556" 
d="M36 241v51h347c-3 56 -42 114 -119 114c-57 0 -92 -26 -122 -78l-100 37c39 89 107 147 229 147c173 0 242 -141 242 -260s-69 -260 -242 -260c-168 0 -235 139 -235 249zM271 98c63 0 100 48 109 96h-217c11 -50 42 -96 108 -96z" />
    <glyph glyph-name="Gcircumflex" unicode="&#x11c;" horiz-adv-x="732" 
d="M552 0l-11 75c-27 -41 -80 -83 -170 -83c-169 0 -323 119 -323 358s160 358 333 358c156 0 255 -93 291 -221l-119 -31c-33 80 -87 132 -172 132c-112 0 -201 -75 -201 -238c0 -168 89 -238 198 -238c103 0 149 70 157 133h-130v108h256v-353h-109zM193 762l171 186h34
l171 -186h-120l-68 74l-68 -74h-120z" />
    <glyph glyph-name="gcircumflex" unicode="&#x11d;" horiz-adv-x="515" 
d="M81 342c0 105 83 170 185 170c34 0 65 -8 93 -22l95 50l49 -82l-72 -36c13 -23 20 -50 20 -80c0 -106 -83 -168 -185 -168c-26 0 -51 4 -73 11c-15 -9 -24 -22 -24 -38c0 -24 17 -37 47 -37h103c106 0 177 -51 177 -148c0 -124 -117 -174 -229 -174
c-129 0 -228 56 -228 166c0 41 15 76 41 100c-16 19 -26 46 -26 78c0 48 25 84 62 106c-22 27 -35 62 -35 104zM291 6h-68c-21 0 -40 1 -58 4c-8 -12 -11 -27 -11 -46c0 -48 48 -72 113 -72c59 0 105 17 105 62c0 42 -34 52 -81 52zM197 342c0 -41 29 -68 69 -68
s69 27 69 68c0 42 -29 70 -69 70s-69 -28 -69 -70zM71 566l171 186h34l171 -186h-120l-68 74l-68 -74h-120z" />
    <glyph glyph-name="Gbreve" unicode="&#x11e;" horiz-adv-x="732" 
d="M552 0l-11 75c-27 -41 -80 -83 -170 -83c-169 0 -323 119 -323 358s160 358 333 358c156 0 255 -93 291 -221l-119 -31c-33 80 -87 132 -172 132c-112 0 -201 -75 -201 -238c0 -168 89 -238 198 -238c103 0 149 70 157 133h-130v108h256v-353h-109zM262 896h91
c0 -16 11 -28 27 -28s27 12 27 28h91c0 -58 -45 -109 -118 -109s-118 51 -118 109z" />
    <glyph glyph-name="gbreve" unicode="&#x11f;" horiz-adv-x="515" 
d="M81 342c0 105 83 170 185 170c34 0 65 -8 93 -22l95 50l49 -82l-72 -36c13 -23 20 -50 20 -80c0 -106 -83 -168 -185 -168c-26 0 -51 4 -73 11c-15 -9 -24 -22 -24 -38c0 -24 17 -37 47 -37h103c106 0 177 -51 177 -148c0 -124 -117 -174 -229 -174
c-129 0 -228 56 -228 166c0 41 15 76 41 100c-16 19 -26 46 -26 78c0 48 25 84 62 106c-22 27 -35 62 -35 104zM291 6h-68c-21 0 -40 1 -58 4c-8 -12 -11 -27 -11 -46c0 -48 48 -72 113 -72c59 0 105 17 105 62c0 42 -34 52 -81 52zM197 342c0 -41 29 -68 69 -68
s69 27 69 68c0 42 -29 70 -69 70s-69 -28 -69 -70zM149 700h91c0 -16 11 -28 27 -28s27 12 27 28h91c0 -58 -45 -109 -118 -109s-118 51 -118 109z" />
    <glyph glyph-name="Gdotaccent" unicode="&#x120;" horiz-adv-x="732" 
d="M552 0l-11 75c-27 -41 -80 -83 -170 -83c-169 0 -323 119 -323 358s160 358 333 358c156 0 255 -93 291 -221l-119 -31c-33 80 -87 132 -172 132c-112 0 -201 -75 -201 -238c0 -168 89 -238 198 -238c103 0 149 70 157 133h-130v108h256v-353h-109zM302 845
c0 45 34 80 80 80s80 -35 80 -80s-34 -80 -80 -80s-80 35 -80 80z" />
    <glyph glyph-name="gdotaccent" unicode="&#x121;" horiz-adv-x="515" 
d="M81 342c0 105 83 170 185 170c34 0 65 -8 93 -22l95 50l49 -82l-72 -36c13 -23 20 -50 20 -80c0 -106 -83 -168 -185 -168c-26 0 -51 4 -73 11c-15 -9 -24 -22 -24 -38c0 -24 17 -37 47 -37h103c106 0 177 -51 177 -148c0 -124 -117 -174 -229 -174
c-129 0 -228 56 -228 166c0 41 15 76 41 100c-16 19 -26 46 -26 78c0 48 25 84 62 106c-22 27 -35 62 -35 104zM291 6h-68c-21 0 -40 1 -58 4c-8 -12 -11 -27 -11 -46c0 -48 48 -72 113 -72c59 0 105 17 105 62c0 42 -34 52 -81 52zM197 342c0 -41 29 -68 69 -68
s69 27 69 68c0 42 -29 70 -69 70s-69 -28 -69 -70zM186 649c0 45 34 80 80 80s80 -35 80 -80s-34 -80 -80 -80s-80 35 -80 80z" />
    <glyph glyph-name="uni0122" unicode="&#x122;" horiz-adv-x="732" 
d="M552 0l-11 75c-27 -41 -80 -83 -170 -83c-169 0 -323 119 -323 358s160 358 333 358c156 0 255 -93 291 -221l-119 -31c-33 80 -87 132 -172 132c-112 0 -201 -75 -201 -238c0 -168 89 -238 198 -238c103 0 149 70 157 133h-130v108h256v-353h-109zM241 -354l75 302h167
l-155 -302h-87z" />
    <glyph glyph-name="uni0123" unicode="&#x123;" horiz-adv-x="515" 
d="M81 342c0 105 83 170 185 170c34 0 65 -8 93 -22l95 50l49 -82l-72 -36c13 -23 20 -50 20 -80c0 -106 -83 -168 -185 -168c-26 0 -51 4 -73 11c-15 -9 -24 -22 -24 -38c0 -24 17 -37 47 -37h103c106 0 177 -51 177 -148c0 -124 -117 -174 -229 -174
c-129 0 -228 56 -228 166c0 41 15 76 41 100c-16 19 -26 46 -26 78c0 48 25 84 62 106c-22 27 -35 62 -35 104zM291 6h-68c-21 0 -40 1 -58 4c-8 -12 -11 -27 -11 -46c0 -48 48 -72 113 -72c59 0 105 17 105 62c0 42 -34 52 -81 52zM197 342c0 -41 29 -68 69 -68
s69 27 69 68c0 42 -29 70 -69 70s-69 -28 -69 -70zM244 820l78 -244h-92l-149 244h163z" />
    <glyph glyph-name="Hcircumflex" unicode="&#x124;" horiz-adv-x="720" 
d="M90 0v700h130v-266h280v266h130v-700h-130v314h-280v-314h-130zM172 762l171 186h34l171 -186h-120l-68 74l-68 -74h-120z" />
    <glyph glyph-name="hcircumflex" unicode="&#x125;" horiz-adv-x="593" 
d="M80 708h124v-285c32 51 87 89 160 89c95 0 157 -49 157 -152v-360h-124v316c0 61 -24 90 -75 90c-57 0 -118 -57 -118 -193v-213h-124v708zM89 762l171 186h34l171 -186h-120l-68 74l-68 -74h-120z" />
    <glyph glyph-name="Hbar" unicode="&#x126;" horiz-adv-x="720" 
d="M25 496v108h65v96h130v-96h280v96h130v-96h64v-108h-64v-496h-130v314h-280v-314h-130v496h-65zM220 434h280v62h-280v-62z" />
    <glyph glyph-name="hbar" unicode="&#x127;" horiz-adv-x="593" 
d="M8 559v92h72v57h124v-57h111v-92h-111v-136c32 51 87 89 160 89c95 0 157 -49 157 -152v-360h-124v316c0 61 -24 90 -75 90c-57 0 -118 -57 -118 -193v-213h-124v559h-72z" />
    <glyph glyph-name="Itilde" unicode="&#x128;" horiz-adv-x="310" 
d="M220 700v-700h-130v700h130zM28 765l-65 55c23 51 72 87 123 87c66 0 85 -41 133 -41c22 0 45 17 64 43l65 -55c-23 -51 -72 -87 -123 -87c-66 0 -85 41 -133 41c-22 0 -45 -17 -64 -43z" />
    <glyph glyph-name="itilde" unicode="&#x129;" horiz-adv-x="260" 
d="M68 504h124v-504h-124v504zM3 569l-65 55c23 51 72 87 123 87c66 0 85 -41 133 -41c22 0 45 17 64 43l65 -55c-23 -51 -72 -87 -123 -87c-66 0 -85 41 -133 41c-22 0 -45 -17 -64 -43z" />
    <glyph glyph-name="Imacron" unicode="&#x12a;" horiz-adv-x="310" 
d="M220 700v-700h-130v700h130zM20 794v110h269v-110h-269z" />
    <glyph glyph-name="imacron" unicode="&#x12b;" horiz-adv-x="260" 
d="M68 504h124v-504h-124v504zM-4 598v110h269v-110h-269z" />
    <glyph glyph-name="Ibreve" unicode="&#x12c;" horiz-adv-x="310" 
d="M220 700v-700h-130v700h130zM37 896h91c0 -16 11 -28 27 -28s27 12 27 28h91c0 -58 -45 -109 -118 -109s-118 51 -118 109z" />
    <glyph glyph-name="ibreve" unicode="&#x12d;" horiz-adv-x="260" 
d="M68 504h124v-504h-124v504zM12 700h91c0 -16 11 -28 27 -28s27 12 27 28h91c0 -58 -45 -109 -118 -109s-118 51 -118 109z" />
    <glyph glyph-name="Iogonek" unicode="&#x12e;" horiz-adv-x="310" 
d="M140 0h-50v700h130v-700c-34 -29 -58 -57 -58 -78c0 -18 9 -26 26 -26c19 0 29 12 49 39l53 -43c-30 -49 -62 -77 -116 -77c-57 0 -97 33 -97 90c0 39 28 75 63 95z" />
    <glyph glyph-name="iogonek" unicode="&#x12f;" horiz-adv-x="260" 
d="M112 0h-44v504h124v-504c-34 -29 -58 -57 -58 -78c0 -18 9 -26 26 -26c19 0 29 12 49 39l53 -43c-30 -49 -62 -77 -116 -77c-57 0 -97 33 -97 90c0 39 28 75 63 95zM50 649c0 45 34 80 80 80s80 -35 80 -80s-34 -80 -80 -80s-80 35 -80 80z" />
    <glyph glyph-name="Idotaccent" unicode="&#x130;" horiz-adv-x="310" 
d="M220 700v-700h-130v700h130zM75 845c0 45 34 80 80 80s80 -35 80 -80s-34 -80 -80 -80s-80 35 -80 80z" />
    <glyph glyph-name="IJ" unicode="&#x132;" horiz-adv-x="825" 
d="M220 700v-700h-130v700h130zM312 173l128 27c12 -62 42 -88 88 -88c55 0 93 27 93 120v468h130v-454c0 -189 -85 -254 -223 -254c-122 0 -202 68 -216 181z" />
    <glyph glyph-name="ij" unicode="&#x133;" horiz-adv-x="520" 
d="M50 649c0 45 34 80 80 80s80 -35 80 -80s-34 -80 -80 -80s-80 35 -80 80zM68 504h124v-504h-124v504zM328 504h124v-446c0 -161 -70 -237 -211 -270l-30 109c73 18 117 52 117 146v461zM310 649c0 45 34 80 80 80s80 -35 80 -80s-34 -80 -80 -80s-80 35 -80 80z" />
    <glyph glyph-name="Jcircumflex" unicode="&#x134;" horiz-adv-x="515" 
d="M2 173l128 27c12 -62 42 -88 88 -88c55 0 93 27 93 120v468h130v-454c0 -189 -85 -254 -223 -254c-122 0 -202 68 -216 181zM190 762l171 186h34l171 -186h-120l-68 74l-68 -74h-120z" />
    <glyph glyph-name="jcircumflex" unicode="&#x135;" horiz-adv-x="260" 
d="M68 504h124v-446c0 -161 -70 -237 -211 -270l-30 109c73 18 117 52 117 146v461zM-58 566l171 186h34l171 -186h-120l-68 74l-68 -74h-120z" />
    <glyph glyph-name="uni0136" unicode="&#x136;" horiz-adv-x="643" 
d="M90 700h130v-260l239 260h160l-284 -313l304 -387h-165l-254 334v-334h-130v700zM211 -354l75 302h167l-155 -302h-87z" />
    <glyph glyph-name="uni0137" unicode="&#x137;" horiz-adv-x="537" 
d="M80 708h124v-402l164 198h153l-202 -232l215 -272h-152l-178 238v-238h-124v708zM161 -354l75 302h167l-155 -302h-87z" />
    <glyph glyph-name="kgreenlandic" unicode="&#x138;" horiz-adv-x="537" 
d="M80 504h124v-198l164 198h153l-202 -232l215 -272h-152l-178 238v-238h-124v504z" />
    <glyph glyph-name="Lacute" unicode="&#x139;" horiz-adv-x="531" 
d="M90 700h130v-580h297v-120h-427v700zM92 756l64 148h168l-137 -148h-95z" />
    <glyph glyph-name="lacute" unicode="&#x13a;" horiz-adv-x="278" 
d="M78 708h124v-708h-124v708zM80 756l64 148h168l-137 -148h-95z" />
    <glyph glyph-name="uni013B" unicode="&#x13b;" horiz-adv-x="531" 
d="M90 700h130v-580h297v-120h-427v700zM165 -354l75 302h167l-155 -302h-87z" />
    <glyph glyph-name="uni013C" unicode="&#x13c;" horiz-adv-x="278" 
d="M78 708h124v-708h-124v708zM4 -354l75 302h167l-155 -302h-87z" />
    <glyph glyph-name="Lcaron" unicode="&#x13d;" horiz-adv-x="551" 
d="M90 700h130v-580h297v-120h-427v700zM319 464l78 244h163l-149 -244h-92z" />
    <glyph glyph-name="lcaron" unicode="&#x13e;" horiz-adv-x="533" 
d="M78 708h124v-708h-124v708zM246 464l78 244h163l-149 -244h-92z" />
    <glyph glyph-name="Ldot" unicode="&#x13f;" horiz-adv-x="531" 
d="M90 700h130v-580h297v-120h-427v700zM315 369c0 48 36 84 84 84s84 -36 84 -84s-36 -84 -84 -84s-84 36 -84 84z" />
    <glyph glyph-name="ldot" unicode="&#x140;" horiz-adv-x="506" 
d="M78 708h124v-708h-124v708zM271 369c0 48 36 84 84 84s84 -36 84 -84s-36 -84 -84 -84s-84 36 -84 84z" />
    <glyph glyph-name="Nacute" unicode="&#x143;" horiz-adv-x="704" 
d="M484 700h130v-700h-137l-257 462v-462h-130v700h137l257 -462v462zM266 756l64 148h168l-137 -148h-95z" />
    <glyph glyph-name="nacute" unicode="&#x144;" 
d="M80 504h124v-81c37 53 91 89 156 89c90 0 155 -51 155 -152v-360h-124v323c0 60 -30 83 -72 83c-60 0 -115 -72 -115 -205v-201h-124v504zM206 560l64 148h168l-137 -148h-95z" />
    <glyph glyph-name="uni0145" unicode="&#x145;" horiz-adv-x="704" 
d="M484 700h130v-700h-137l-257 462v-462h-130v700h137l257 -462v462zM211 -354l75 302h167l-155 -302h-87z" />
    <glyph glyph-name="uni0146" unicode="&#x146;" 
d="M80 504h124v-81c37 53 91 89 156 89c90 0 155 -51 155 -152v-360h-124v323c0 60 -30 83 -72 83c-60 0 -115 -72 -115 -205v-201h-124v504zM151 -354l75 302h167l-155 -302h-87z" />
    <glyph glyph-name="Ncaron" unicode="&#x147;" horiz-adv-x="704" 
d="M484 700h130v-700h-137l-257 462v-462h-130v700h137l257 -462v462zM335 762l-171 186h120l68 -74l68 74h120l-171 -186h-34z" />
    <glyph glyph-name="ncaron" unicode="&#x148;" 
d="M80 504h124v-81c37 53 91 89 156 89c90 0 155 -51 155 -152v-360h-124v323c0 60 -30 83 -72 83c-60 0 -115 -72 -115 -205v-201h-124v504zM276 566l-171 186h120l68 -74l68 74h120l-171 -186h-34z" />
    <glyph glyph-name="napostrophe" unicode="&#x149;" horiz-adv-x="749" 
d="M242 504h124v-81c37 53 91 89 156 89c90 0 155 -51 155 -152v-360h-124v323c0 60 -30 83 -72 83c-60 0 -115 -72 -115 -205v-201h-124v504zM16 464l78 244h163l-149 -244h-92z" />
    <glyph glyph-name="Eng" unicode="&#x14a;" horiz-adv-x="704" 
d="M391 -212v120c52 0 89 18 93 92l-264 462v-462h-130v700h137l257 -462v462h130v-700c0 -150 -87 -212 -223 -212z" />
    <glyph glyph-name="eng" unicode="&#x14b;" 
d="M391 323c0 60 -30 83 -72 83c-60 0 -115 -72 -115 -205v-201h-124v504h124v-81c37 53 91 89 156 89c90 0 155 -51 155 -152v-302c0 -161 -70 -237 -211 -270l-30 109c73 18 117 52 117 146v280z" />
    <glyph glyph-name="Omacron" unicode="&#x14c;" horiz-adv-x="756" 
d="M378 708c177 0 330 -115 330 -358s-153 -358 -330 -358s-330 115 -330 358s153 358 330 358zM378 588c-105 0 -198 -72 -198 -238s93 -238 198 -238s198 72 198 238s-93 238 -198 238zM243 794v110h269v-110h-269z" />
    <glyph glyph-name="omacron" unicode="&#x14d;" horiz-adv-x="598" 
d="M43 252c0 146 94 260 256 260s256 -114 256 -260s-94 -260 -256 -260s-256 114 -256 260zM173 252c0 -83 46 -154 126 -154s126 71 126 154s-46 154 -126 154s-126 -71 -126 -154zM164 598v110h269v-110h-269z" />
    <glyph glyph-name="Obreve" unicode="&#x14e;" horiz-adv-x="756" 
d="M378 708c177 0 330 -115 330 -358s-153 -358 -330 -358s-330 115 -330 358s153 358 330 358zM378 588c-105 0 -198 -72 -198 -238s93 -238 198 -238s198 72 198 238s-93 238 -198 238zM260 896h91c0 -16 11 -28 27 -28s27 12 27 28h91c0 -58 -45 -109 -118 -109
s-118 51 -118 109z" />
    <glyph glyph-name="obreve" unicode="&#x14f;" horiz-adv-x="598" 
d="M43 252c0 146 94 260 256 260s256 -114 256 -260s-94 -260 -256 -260s-256 114 -256 260zM173 252c0 -83 46 -154 126 -154s126 71 126 154s-46 154 -126 154s-126 -71 -126 -154zM181 700h91c0 -16 11 -28 27 -28s27 12 27 28h91c0 -58 -45 -109 -118 -109
s-118 51 -118 109z" />
    <glyph glyph-name="Ohungarumlaut" unicode="&#x150;" horiz-adv-x="756" 
d="M378 708c177 0 330 -115 330 -358s-153 -358 -330 -358s-330 115 -330 358s153 358 330 358zM378 588c-105 0 -198 -72 -198 -238s93 -238 198 -238s198 72 198 238s-93 238 -198 238zM200 756l64 148h168l-137 -148h-95zM403 756l64 148h168l-137 -148h-95z" />
    <glyph glyph-name="ohungarumlaut" unicode="&#x151;" horiz-adv-x="598" 
d="M43 252c0 146 94 260 256 260s256 -114 256 -260s-94 -260 -256 -260s-256 114 -256 260zM173 252c0 -83 46 -154 126 -154s126 71 126 154s-46 154 -126 154s-126 -71 -126 -154zM111 560l64 148h168l-137 -148h-95zM314 560l64 148h168l-137 -148h-95z" />
    <glyph glyph-name="Racute" unicode="&#x154;" horiz-adv-x="653" 
d="M558 501c0 -92 -46 -162 -131 -188l194 -313h-145l-188 302h-68v-302h-130v700h255c140 0 213 -83 213 -199zM346 422c47 0 82 22 82 79s-35 79 -82 79h-126v-158h126zM215 756l64 148h168l-137 -148h-95z" />
    <glyph glyph-name="racute" unicode="&#x155;" horiz-adv-x="422" 
d="M204 0h-124v504h124v-82c36 59 92 90 149 90c22 0 41 -4 61 -10l-23 -115c-15 9 -31 14 -52 14c-72 0 -135 -59 -135 -222v-179zM155 560l64 148h168l-137 -148h-95z" />
    <glyph glyph-name="uni0156" unicode="&#x156;" horiz-adv-x="653" 
d="M558 501c0 -92 -46 -162 -131 -188l194 -313h-145l-188 302h-68v-302h-130v700h255c140 0 213 -83 213 -199zM346 422c47 0 82 22 82 79s-35 79 -82 79h-126v-158h126zM201 -354l75 302h167l-155 -302h-87z" />
    <glyph glyph-name="uni0157" unicode="&#x157;" horiz-adv-x="422" 
d="M204 0h-124v504h124v-82c36 59 92 90 149 90c22 0 41 -4 61 -10l-23 -115c-15 9 -31 14 -52 14c-72 0 -135 -59 -135 -222v-179zM41 -354l75 302h167l-155 -302h-87z" />
    <glyph glyph-name="Rcaron" unicode="&#x158;" horiz-adv-x="653" 
d="M558 501c0 -92 -46 -162 -131 -188l194 -313h-145l-188 302h-68v-302h-130v700h255c140 0 213 -83 213 -199zM346 422c47 0 82 22 82 79s-35 79 -82 79h-126v-158h126zM272 762l-171 186h120l68 -74l68 74h120l-171 -186h-34z" />
    <glyph glyph-name="rcaron" unicode="&#x159;" horiz-adv-x="422" 
d="M204 0h-124v504h124v-82c36 59 92 90 149 90c22 0 41 -4 61 -10l-23 -115c-15 9 -31 14 -52 14c-72 0 -135 -59 -135 -222v-179zM230 566l-171 186h120l68 -74l68 74h120l-171 -186h-34z" />
    <glyph glyph-name="Sacute" unicode="&#x15a;" horiz-adv-x="537" 
d="M470 581l-105 -67c-27 52 -56 74 -97 74c-38 0 -67 -27 -67 -64c0 -122 299 -106 299 -314c0 -137 -90 -218 -224 -218c-127 0 -219 89 -241 196l105 66c21 -75 63 -142 139 -142c54 0 91 27 91 91c0 116 -293 93 -293 315c0 106 81 190 191 190c93 0 164 -46 202 -127z
M199 756l64 148h168l-137 -148h-95z" />
    <glyph glyph-name="sacute" unicode="&#x15b;" horiz-adv-x="456" 
d="M231 512c68 0 127 -33 158 -82l-74 -68c-23 30 -56 44 -84 44c-24 0 -46 -14 -46 -42c0 -22 18 -38 48 -49c69 -25 182 -47 182 -155c0 -91 -70 -168 -179 -168c-105 0 -175 74 -200 136l99 53c18 -49 52 -83 101 -83c38 0 62 17 62 54c0 42 -65 51 -126 77
c-55 23 -102 58 -102 136s63 147 161 147zM142 560l64 148h168l-137 -148h-95z" />
    <glyph glyph-name="Scircumflex" unicode="&#x15c;" horiz-adv-x="537" 
d="M470 581l-105 -67c-27 52 -56 74 -97 74c-38 0 -67 -27 -67 -64c0 -122 299 -106 299 -314c0 -137 -90 -218 -224 -218c-127 0 -219 89 -241 196l105 66c21 -75 63 -142 139 -142c54 0 91 27 91 91c0 116 -293 93 -293 315c0 106 81 190 191 190c93 0 164 -46 202 -127z
M85 762l171 186h34l171 -186h-120l-68 74l-68 -74h-120z" />
    <glyph glyph-name="scircumflex" unicode="&#x15d;" horiz-adv-x="456" 
d="M231 512c68 0 127 -33 158 -82l-74 -68c-23 30 -56 44 -84 44c-24 0 -46 -14 -46 -42c0 -22 18 -38 48 -49c69 -25 182 -47 182 -155c0 -91 -70 -168 -179 -168c-105 0 -175 74 -200 136l99 53c18 -49 52 -83 101 -83c38 0 62 17 62 54c0 42 -65 51 -126 77
c-55 23 -102 58 -102 136s63 147 161 147zM46 566l171 186h34l171 -186h-120l-68 74l-68 -74h-120z" />
    <glyph glyph-name="Scedilla" unicode="&#x15e;" horiz-adv-x="537" 
d="M470 581l-105 -67c-27 52 -56 74 -97 74c-38 0 -67 -27 -67 -64c0 -122 299 -106 299 -314c0 -137 -90 -218 -224 -218c-127 0 -219 89 -241 196l105 66c21 -75 63 -142 139 -142c54 0 91 27 91 91c0 116 -293 93 -293 315c0 106 81 190 191 190c93 0 164 -46 202 -127z
M352 -60l-83 -206l-148 66l141 140h90z" />
    <glyph glyph-name="scedilla" unicode="&#x15f;" horiz-adv-x="456" 
d="M231 512c68 0 127 -33 158 -82l-74 -68c-23 30 -56 44 -84 44c-24 0 -46 -14 -46 -42c0 -22 18 -38 48 -49c69 -25 182 -47 182 -155c0 -91 -70 -168 -179 -168c-105 0 -175 74 -200 136l99 53c18 -49 52 -83 101 -83c38 0 62 17 62 54c0 42 -65 51 -126 77
c-55 23 -102 58 -102 136s63 147 161 147zM315 -60l-83 -206l-148 66l141 140h90z" />
    <glyph glyph-name="uni0162" unicode="&#x162;" horiz-adv-x="534" 
d="M8 580v120h518v-120h-194v-580h-130v580h-194zM114 -354l75 302h167l-155 -302h-87z" />
    <glyph glyph-name="uni0163" unicode="&#x163;" horiz-adv-x="392" 
d="M334 110l29 -100c-28 -13 -55 -18 -82 -18c-114 0 -185 61 -185 186v220h-78v106h78v126l124 78v-204h133v-106h-133v-218c0 -62 24 -82 66 -82c17 0 31 3 48 12zM81 -354l75 302h167l-155 -302h-87z" />
    <glyph glyph-name="Tcaron" unicode="&#x164;" horiz-adv-x="534" 
d="M8 580v120h518v-120h-194v-580h-130v580h-194zM250 762l-171 186h120l68 -74l68 74h120l-171 -186h-34z" />
    <glyph glyph-name="tcaron" unicode="&#x165;" horiz-adv-x="618" 
d="M334 110l29 -100c-28 -13 -55 -18 -82 -18c-114 0 -185 61 -185 186v220h-78v106h78v126l124 78v-204h133v-106h-133v-218c0 -62 24 -82 66 -82c17 0 31 3 48 12zM387 464l78 244h163l-149 -244h-92z" />
    <glyph glyph-name="Tbar" unicode="&#x166;" horiz-adv-x="534" 
d="M8 580v120h518v-120h-194v-96h169v-108h-169v-376h-130v376h-170v108h170v96h-194z" />
    <glyph glyph-name="tbar" unicode="&#x167;" horiz-adv-x="392" 
d="M34 242v92h62v64h-78v106h78v126l124 78v-204h133v-106h-133v-64h111v-92h-111v-62c0 -62 24 -82 66 -82c17 0 31 3 48 12l29 -100c-28 -13 -55 -18 -82 -18c-114 0 -185 61 -185 186v64h-62z" />
    <glyph glyph-name="Utilde" unicode="&#x168;" horiz-adv-x="656" 
d="M589 700v-434c0 -187 -108 -274 -261 -274s-261 87 -261 274v434h130v-436c0 -102 43 -152 131 -152s131 50 131 152v436h130zM201 765l-65 55c23 51 72 87 123 87c66 0 85 -41 133 -41c22 0 45 17 64 43l65 -55c-23 -51 -72 -87 -123 -87c-66 0 -85 41 -133 41
c-22 0 -45 -17 -64 -43z" />
    <glyph glyph-name="utilde" unicode="&#x169;" 
d="M507 0h-124v81c-37 -53 -91 -89 -156 -89c-90 0 -155 51 -155 152v360h124v-323c0 -60 30 -83 72 -83c60 0 115 72 115 205v201h124v-504zM166 569l-65 55c23 51 72 87 123 87c66 0 85 -41 133 -41c22 0 45 17 64 43l65 -55c-23 -51 -72 -87 -123 -87
c-66 0 -85 41 -133 41c-22 0 -45 -17 -64 -43z" />
    <glyph glyph-name="Umacron" unicode="&#x16a;" horiz-adv-x="656" 
d="M589 700v-434c0 -187 -108 -274 -261 -274s-261 87 -261 274v434h130v-436c0 -102 43 -152 131 -152s131 50 131 152v436h130zM194 794v110h269v-110h-269z" />
    <glyph glyph-name="umacron" unicode="&#x16b;" 
d="M507 0h-124v81c-37 -53 -91 -89 -156 -89c-90 0 -155 51 -155 152v360h124v-323c0 -60 30 -83 72 -83c60 0 115 72 115 205v201h124v-504zM159 598v110h269v-110h-269z" />
    <glyph glyph-name="Ubreve" unicode="&#x16c;" horiz-adv-x="656" 
d="M589 700v-434c0 -187 -108 -274 -261 -274s-261 87 -261 274v434h130v-436c0 -102 43 -152 131 -152s131 50 131 152v436h130zM210 896h91c0 -16 11 -28 27 -28s27 12 27 28h91c0 -58 -45 -109 -118 -109s-118 51 -118 109z" />
    <glyph glyph-name="ubreve" unicode="&#x16d;" 
d="M507 0h-124v81c-37 -53 -91 -89 -156 -89c-90 0 -155 51 -155 152v360h124v-323c0 -60 30 -83 72 -83c60 0 115 72 115 205v201h124v-504zM175 700h91c0 -16 11 -28 27 -28s27 12 27 28h91c0 -58 -45 -109 -118 -109s-118 51 -118 109z" />
    <glyph glyph-name="Uring" unicode="&#x16e;" horiz-adv-x="656" 
d="M589 700v-434c0 -187 -108 -274 -261 -274s-261 87 -261 274v434h130v-436c0 -102 43 -152 131 -152s131 50 131 152v436h130zM225 851c0 58 43 102 103 102s103 -44 103 -102s-43 -102 -103 -102s-103 44 -103 102zM298 851c0 -19 11 -32 30 -32s30 13 30 32
s-11 32 -30 32s-30 -13 -30 -32z" />
    <glyph glyph-name="uring" unicode="&#x16f;" 
d="M507 0h-124v81c-37 -53 -91 -89 -156 -89c-90 0 -155 51 -155 152v360h124v-323c0 -60 30 -83 72 -83c60 0 115 72 115 205v201h124v-504zM190 655c0 58 43 102 103 102s103 -44 103 -102s-43 -102 -103 -102s-103 44 -103 102zM263 655c0 -19 11 -32 30 -32s30 13 30 32
s-11 32 -30 32s-30 -13 -30 -32z" />
    <glyph glyph-name="Uhungarumlaut" unicode="&#x170;" horiz-adv-x="656" 
d="M589 700v-434c0 -187 -108 -274 -261 -274s-261 87 -261 274v434h130v-436c0 -102 43 -152 131 -152s131 50 131 152v436h130zM140 756l64 148h168l-137 -148h-95zM343 756l64 148h168l-137 -148h-95z" />
    <glyph glyph-name="uhungarumlaut" unicode="&#x171;" 
d="M507 0h-124v81c-37 -53 -91 -89 -156 -89c-90 0 -155 51 -155 152v360h124v-323c0 -60 30 -83 72 -83c60 0 115 72 115 205v201h124v-504zM105 560l64 148h168l-137 -148h-95zM308 560l64 148h168l-137 -148h-95z" />
    <glyph glyph-name="Uogonek" unicode="&#x172;" horiz-adv-x="656" 
d="M589 700v-434c0 -155 -74 -242 -187 -266c-33 -29 -57 -57 -57 -78c0 -18 9 -26 26 -26c19 0 29 12 49 39l53 -43c-30 -49 -62 -77 -116 -77c-57 0 -97 33 -97 90c0 35 22 67 50 87c-143 6 -243 94 -243 274v434h130v-436c0 -102 43 -152 131 -152s131 50 131 152v436
h130z" />
    <glyph glyph-name="uogonek" unicode="&#x173;" 
d="M427 0h-44v81c-37 -53 -91 -89 -156 -89c-90 0 -155 51 -155 152v360h124v-323c0 -60 30 -83 72 -83c60 0 115 72 115 205v201h124v-504c-34 -29 -58 -57 -58 -78c0 -18 9 -26 26 -26c19 0 29 12 49 39l53 -43c-30 -49 -62 -77 -116 -77c-57 0 -97 33 -97 90
c0 39 28 75 63 95z" />
    <glyph glyph-name="Wcircumflex" unicode="&#x174;" horiz-adv-x="920" 
d="M764 700h138l-183 -700h-132l-127 412l-127 -412h-132l-183 700h138l117 -515l131 441h112l131 -441zM272 762l171 186h34l171 -186h-120l-68 74l-68 -74h-120z" />
    <glyph glyph-name="wcircumflex" unicode="&#x175;" horiz-adv-x="766" 
d="M616 504h125l-161 -504h-110l-87 326l-87 -326h-110l-161 504h125l90 -346l85 346h116l85 -346zM195 566l171 186h34l171 -186h-120l-68 74l-68 -74h-120z" />
    <glyph glyph-name="Ycircumflex" unicode="&#x176;" horiz-adv-x="534" 
d="M0 700h140l127 -272l127 272h140l-202 -402v-298h-130v298zM79 762l171 186h34l171 -186h-120l-68 74l-68 -74h-120z" />
    <glyph glyph-name="ycircumflex" unicode="&#x177;" horiz-adv-x="481" 
d="M3 504h125l117 -316l110 316h124l-260 -708h-120l87 236zM57 566l171 186h34l171 -186h-120l-68 74l-68 -74h-120z" />
    <glyph glyph-name="Zacute" unicode="&#x179;" horiz-adv-x="558" 
d="M47 580v120h464v-60l-300 -520h314v-120h-495v60l303 520h-286zM191 756l64 148h168l-137 -148h-95z" />
    <glyph glyph-name="zacute" unicode="&#x17a;" horiz-adv-x="465" 
d="M57 398v106h356v-48l-216 -350h230v-106h-386v48l218 350h-202zM146 560l64 148h168l-137 -148h-95z" />
    <glyph glyph-name="Zdotaccent" unicode="&#x17b;" horiz-adv-x="558" 
d="M47 580v120h464v-60l-300 -520h314v-120h-495v60l303 520h-286zM190 845c0 45 34 80 80 80s80 -35 80 -80s-34 -80 -80 -80s-80 35 -80 80z" />
    <glyph glyph-name="zdotaccent" unicode="&#x17c;" horiz-adv-x="465" 
d="M57 398v106h356v-48l-216 -350h230v-106h-386v48l218 350h-202zM154 649c0 45 34 80 80 80s80 -35 80 -80s-34 -80 -80 -80s-80 35 -80 80z" />
    <glyph glyph-name="uni01B5" unicode="&#x1b5;" horiz-adv-x="558" 
d="M47 580v120h464v-60l-136 -236h114v-108h-177l-101 -176h314v-120h-495v60l137 236h-94v108h157l103 176h-286z" />
    <glyph glyph-name="uni01B6" unicode="&#x1b6;" horiz-adv-x="465" 
d="M57 398v106h356v-48l-90 -146h68v-92h-124l-70 -112h230v-106h-386v48l106 170h-79v92h135l56 88h-202z" />
    <glyph glyph-name="longs" unicode="&#x17f;" horiz-adv-x="368" 
d="M32 398v106h64v26c0 123 70 178 174 178c39 0 72 -8 94 -20l-27 -100c-21 9 -39 14 -60 14c-35 0 -57 -18 -57 -63v-539h-124v398h-64z" />
    <glyph glyph-name="uni0410" unicode="&#x410;" horiz-adv-x="614" 
d="M469 0l-51 165h-222l-51 -165h-140l237 700h130l237 -700h-140zM307 528l-74 -243h148z" />
    <glyph glyph-name="uni0411" unicode="&#x411;" horiz-adv-x="624" 
d="M220 428h131c143 0 231 -75 231 -214s-88 -214 -231 -214h-261v700h426v-120h-296v-152zM339 308h-119v-188h119c81 0 113 34 113 94s-32 94 -113 94z" />
    <glyph glyph-name="uni0412" unicode="&#x412;" horiz-adv-x="624" 
d="M90 700h256c119 0 200 -62 200 -189c0 -57 -25 -106 -69 -129c66 -27 105 -82 105 -171c0 -136 -88 -211 -231 -211h-261v700zM336 580h-116v-152h119c52 0 82 19 82 76s-30 76 -85 76zM339 308h-119v-188h119c81 0 113 34 113 94s-32 94 -113 94z" />
    <glyph glyph-name="uni0413" unicode="&#x413;" horiz-adv-x="530" 
d="M220 580v-580h-130v700h434v-120h-304z" />
    <glyph glyph-name="uni0414" unicode="&#x414;" horiz-adv-x="704" 
d="M64 -124l-14 248h64l98 576h403v-576h61l-14 -248h-112v124h-374v-124h-112zM485 580h-159l-84 -456h243v456z" />
    <glyph glyph-name="uni0415" unicode="&#x415;" horiz-adv-x="575" 
d="M90 700h433v-120h-303v-147h243v-120h-243v-193h313v-120h-443v700z" />
    <glyph glyph-name="uni0416" unicode="&#x416;" horiz-adv-x="976" 
d="M423 700h130v-260l239 260h160l-284 -313l304 -387h-165l-254 334v-334h-130v334l-254 -334h-165l304 387l-284 313h160l239 -260v260z" />
    <glyph glyph-name="uni0417" unicode="&#x417;" horiz-adv-x="589" 
d="M56 194l121 16c15 -62 50 -102 113 -102c65 0 111 45 111 117c0 81 -47 123 -110 123c-22 0 -40 -4 -61 -15l-50 70l132 181h-223v116h401v-44l-165 -223c9 1 16 2 28 2c108 0 174 -85 174 -208c0 -145 -102 -235 -237 -235c-130 0 -222 85 -234 202z" />
    <glyph glyph-name="uni0418" unicode="&#x418;" horiz-adv-x="704" 
d="M90 700h130v-462l257 462h137v-700h-130v462l-257 -462h-137v700z" />
    <glyph glyph-name="uni0419" unicode="&#x419;" horiz-adv-x="704" 
d="M90 700h130v-462l257 462h137v-700h-130v462l-257 -462h-137v700zM234 896h91c0 -16 11 -28 27 -28s27 12 27 28h91c0 -58 -45 -109 -118 -109s-118 51 -118 109z" />
    <glyph glyph-name="uni041A" unicode="&#x41a;" horiz-adv-x="643" 
d="M90 700h130v-260l239 260h160l-284 -313l304 -387h-165l-254 334v-334h-130v700z" />
    <glyph glyph-name="uni041B" unicode="&#x41b;" horiz-adv-x="651" 
d="M102 200l37 500h422v-700h-130v576h-175l-28 -386c-10 -134 -87 -190 -221 -190v124c56 0 90 3 95 76z" />
    <glyph glyph-name="uni041C" unicode="&#x41c;" horiz-adv-x="802" 
d="M90 0v700h146l165 -437l165 437h146v-700h-130v432l-134 -368h-94l-134 368v-432h-130z" />
    <glyph glyph-name="uni041D" unicode="&#x41d;" horiz-adv-x="720" 
d="M90 0v700h130v-266h280v266h130v-700h-130v314h-280v-314h-130z" />
    <glyph glyph-name="uni041E" unicode="&#x41e;" horiz-adv-x="756" 
d="M378 708c177 0 330 -115 330 -358s-153 -358 -330 -358s-330 115 -330 358s153 358 330 358zM378 588c-105 0 -198 -72 -198 -238s93 -238 198 -238s198 72 198 238s-93 238 -198 238z" />
    <glyph glyph-name="uni041F" unicode="&#x41f;" horiz-adv-x="692" 
d="M90 0v700h512v-700h-130v576h-252v-576h-130z" />
    <glyph glyph-name="uni0420" unicode="&#x420;" horiz-adv-x="592" 
d="M354 274h-134v-274h-130v700h264c148 0 219 -91 219 -213s-71 -213 -219 -213zM349 394c57 0 92 29 92 93s-35 93 -92 93h-129v-186h129z" />
    <glyph glyph-name="uni0421" unicode="&#x421;" horiz-adv-x="700" 
d="M669 496l-117 -30c-27 71 -76 122 -173 122c-108 0 -199 -76 -199 -238s91 -238 199 -238c97 0 146 51 173 122l117 -30c-33 -134 -138 -212 -290 -212c-175 0 -331 124 -331 358s156 358 331 358c152 0 257 -78 290 -212z" />
    <glyph glyph-name="uni0422" unicode="&#x422;" horiz-adv-x="534" 
d="M8 580v120h518v-120h-194v-580h-130v580h-194z" />
    <glyph glyph-name="uni0423" unicode="&#x423;" horiz-adv-x="520" 
d="M-2 700h125l139 -337l136 337h124l-290 -708h-120l89 220z" />
    <glyph glyph-name="uni0424" unicode="&#x424;" horiz-adv-x="780" 
d="M452 72v-72h-124v72h-9c-164 0 -276 128 -276 278s112 278 276 278h9v72h124v-72h9c164 0 276 -128 276 -278s-112 -278 -276 -278h-9zM461 522h-9v-344h9c92 0 146 80 146 172s-54 172 -146 172zM328 178v344h-9c-92 0 -146 -80 -146 -172s54 -172 146 -172h9z" />
    <glyph glyph-name="uni0425" unicode="&#x425;" horiz-adv-x="592" 
d="M410 700h142l-185 -322l218 -378h-144l-145 253l-145 -253h-144l218 378l-185 322h142l114 -198z" />
    <glyph glyph-name="uni0426" unicode="&#x426;" horiz-adv-x="703" 
d="M90 0v700h130v-576h252v576h130v-576h73l-18 -248h-112v124h-455z" />
    <glyph glyph-name="uni0427" unicode="&#x427;" horiz-adv-x="672" 
d="M452 0v239c-44 -31 -109 -43 -164 -43c-126 0 -214 79 -214 264v240h130v-240c0 -93 41 -140 107 -140c75 0 104 24 141 61v319h130v-700h-130z" />
    <glyph glyph-name="uni0428" unicode="&#x428;" horiz-adv-x="992" 
d="M431 124v576h130v-576h211v576h130v-700h-812v700h130v-576h211z" />
    <glyph glyph-name="uni0429" unicode="&#x429;" horiz-adv-x="1003" 
d="M431 124v576h130v-576h211v576h130v-576h73l-18 -248h-112v124h-755v700h130v-576h211z" />
    <glyph glyph-name="uni042A" unicode="&#x42a;" horiz-adv-x="678" 
d="M10 580v120h257v-272h131c143 0 231 -75 231 -214s-88 -214 -231 -214h-261v580h-127zM386 308h-119v-188h119c81 0 113 34 113 94s-32 94 -113 94z" />
    <glyph glyph-name="uni042C" unicode="&#x42c;" horiz-adv-x="631" 
d="M90 0v700h130v-272h131c143 0 231 -75 231 -214s-88 -214 -231 -214h-261zM339 308h-119v-188h119c81 0 113 34 113 94s-32 94 -113 94z" />
    <glyph glyph-name="uni042B" unicode="&#x42b;" horiz-adv-x="890" 
d="M90 0v700h130v-272h131c143 0 231 -75 231 -214s-88 -214 -231 -214h-261zM339 308h-119v-188h119c81 0 113 34 113 94s-32 94 -113 94zM676 708h124v-708h-124v708z" />
    <glyph glyph-name="uni042D" unicode="&#x42d;" horiz-adv-x="685" 
d="M185 290v120h316c-18 120 -86 178 -179 178c-92 0 -145 -56 -174 -124l-117 32c42 126 151 212 291 212c181 0 315 -124 315 -358s-134 -358 -315 -358c-140 0 -249 86 -291 212l117 32c29 -68 83 -124 174 -124c93 0 161 58 179 178h-316z" />
    <glyph glyph-name="uni042E" unicode="&#x42e;" horiz-adv-x="1032" 
d="M654 708c177 0 330 -115 330 -358s-153 -358 -330 -358c-162 0 -304 96 -328 298h-106v-290h-130v700h130v-290h106c24 202 166 298 328 298zM654 588c-105 0 -198 -72 -198 -238s93 -238 198 -238s198 72 198 238s-93 238 -198 238z" />
    <glyph glyph-name="uni042F" unicode="&#x42f;" horiz-adv-x="653" 
d="M95 501c0 116 73 199 213 199h255v-700h-130v302h-68l-188 -302h-145l194 313c-85 26 -131 96 -131 188zM307 422h126v158h-126c-47 0 -82 -22 -82 -79s35 -79 82 -79z" />
    <glyph glyph-name="uni0430" unicode="&#x430;" horiz-adv-x="514" 
d="M162 348l-105 24c16 83 89 140 192 140c120 0 212 -50 212 -211v-301h-102l-13 64c-35 -43 -83 -72 -155 -72c-86 0 -153 53 -153 153s88 165 215 165h84v22c0 56 -42 74 -88 74c-35 0 -71 -11 -87 -58zM168 147c0 -24 17 -49 52 -49c57 0 117 39 117 104v10h-83
c-53 0 -86 -20 -86 -65z" />
    <glyph glyph-name="uni0431" unicode="&#x431;" horiz-adv-x="598" 
d="M43 310c0 296 108 390 262 390h36c34 0 61 13 75 47h77c0 -113 -59 -155 -145 -155h-39c-68 0 -130 -31 -136 -133c27 25 80 53 143 53c151 0 239 -111 239 -260c0 -150 -102 -260 -258 -260c-155 0 -254 123 -254 318zM173 252c0 -83 46 -154 126 -154s126 71 126 154
s-46 154 -126 154s-126 -71 -126 -154z" />
    <glyph glyph-name="uni0432" unicode="&#x432;" horiz-adv-x="521" 
d="M80 504h194c100 0 170 -41 170 -138c0 -36 -21 -73 -48 -91c44 -21 80 -67 80 -127c0 -101 -67 -148 -171 -148h-225v504zM267 404h-63v-84h63c38 0 57 12 57 42s-19 42 -57 42zM272 212h-68v-106h68c50 0 78 14 78 52s-28 54 -78 54z" />
    <glyph glyph-name="uni0433" unicode="&#x433;" horiz-adv-x="431" 
d="M204 0h-124v504h341v-106h-217v-398z" />
    <glyph glyph-name="uni0434" unicode="&#x434;" horiz-adv-x="580" 
d="M416 -114v114h-258v-114h-107l-16 220h42l64 398h361v-398h37l-15 -220h-108zM243 398l-45 -292h180v292h-135z" />
    <glyph glyph-name="uni0435" unicode="&#x435;" horiz-adv-x="556" 
d="M520 263v-51h-347c3 -56 42 -114 119 -114c57 0 92 26 122 78l100 -37c-39 -89 -107 -147 -229 -147c-173 0 -242 141 -242 260s69 260 242 260c168 0 235 -139 235 -249zM285 406c-63 0 -100 -48 -109 -96h217c-11 50 -42 96 -108 96z" />
    <glyph glyph-name="uni0436" unicode="&#x436;" horiz-adv-x="790" 
d="M333 504h124v-198l164 198h153l-202 -232l215 -272h-152l-178 238v-238h-124v238l-178 -238h-152l215 272l-202 232h153l164 -198v198z" />
    <glyph glyph-name="uni0437" unicode="&#x437;" horiz-adv-x="444" 
d="M42 146l112 15c6 -40 28 -74 73 -74c42 0 67 31 67 73c0 43 -26 75 -65 75c-18 0 -34 -5 -49 -13l-56 68l89 114h-145v100h309v-38l-122 -155c6 1 9 1 18 1c80 0 131 -57 131 -150c0 -106 -80 -170 -177 -170c-94 0 -174 59 -185 154z" />
    <glyph glyph-name="uni0438" unicode="&#x438;" horiz-adv-x="592" 
d="M80 504h124v-311l173 311h135v-504h-124v311l-173 -311h-135v504z" />
    <glyph glyph-name="uni0439" unicode="&#x439;" horiz-adv-x="592" 
d="M80 504h124v-311l173 311h135v-504h-124v311l-173 -311h-135v504zM178 700h91c0 -16 11 -28 27 -28s27 12 27 28h91c0 -58 -45 -109 -118 -109s-118 51 -118 109z" />
    <glyph glyph-name="uni043A" unicode="&#x43a;" horiz-adv-x="537" 
d="M80 504h124v-198l164 198h153l-202 -232l215 -272h-152l-178 238v-238h-124v504z" />
    <glyph glyph-name="uni043B" unicode="&#x43b;" horiz-adv-x="600" 
d="M120 177l33 327h367v-504h-124v398h-128l-30 -266c-14 -122 -96 -132 -208 -132v106c58 0 85 18 90 71z" />
    <glyph glyph-name="uni043C" unicode="&#x43c;" horiz-adv-x="648" 
d="M80 0v504h130l114 -290l114 290h130v-504h-124v252l-77 -206h-86l-77 206v-252h-124z" />
    <glyph glyph-name="uni043D" unicode="&#x43d;" horiz-adv-x="576" 
d="M80 0v504h124v-183h168v183h124v-504h-124v215h-168v-215h-124z" />
    <glyph glyph-name="uni043E" unicode="&#x43e;" horiz-adv-x="598" 
d="M43 252c0 146 94 260 256 260s256 -114 256 -260s-94 -260 -256 -260s-256 114 -256 260zM173 252c0 -83 46 -154 126 -154s126 71 126 154s-46 154 -126 154s-126 -71 -126 -154z" />
    <glyph glyph-name="uni043F" unicode="&#x43f;" horiz-adv-x="573" 
d="M80 0v504h413v-504h-124v398h-165v-398h-124z" />
    <glyph glyph-name="uni0440" unicode="&#x440;" horiz-adv-x="599" 
d="M556 252c0 -155 -78 -260 -230 -260c-51 0 -100 26 -122 54v-250h-124v708h124v-52c14 26 60 60 122 60c152 0 230 -105 230 -260zM426 252c0 100 -52 154 -117 154s-116 -54 -116 -154s51 -154 116 -154s117 54 117 154z" />
    <glyph glyph-name="uni0441" unicode="&#x441;" horiz-adv-x="551" 
d="M407 181l111 -45c-38 -95 -117 -144 -229 -144c-164 0 -246 118 -246 260s82 260 246 260c112 0 191 -49 229 -144l-111 -45c-26 53 -62 83 -118 83c-78 0 -116 -65 -116 -154s38 -154 116 -154c56 0 92 30 118 83z" />
    <glyph glyph-name="uni0442" unicode="&#x442;" horiz-adv-x="456" 
d="M31 398v106h394v-106h-135v-398h-124v398h-135z" />
    <glyph glyph-name="uni0443" unicode="&#x443;" horiz-adv-x="481" 
d="M3 504h125l117 -316l110 316h124l-260 -708h-120l87 236z" />
    <glyph glyph-name="uni0444" unicode="&#x444;" horiz-adv-x="722" 
d="M423 -8v-196h-124v196c-155 0 -256 116 -256 260s101 260 256 260v196h124v-196c155 0 256 -116 256 -260s-101 -260 -256 -260zM428 406h-5v-308h5c74 0 121 70 121 154s-47 154 -121 154zM299 98v308h-5c-74 0 -121 -70 -121 -154s47 -154 121 -154h5z" />
    <glyph glyph-name="uni0445" unicode="&#x445;" horiz-adv-x="482" 
d="M323 504h130l-146 -235l167 -269h-130l-103 164l-103 -164h-130l167 269l-146 235h130l82 -131z" />
    <glyph glyph-name="uni0446" unicode="&#x446;" horiz-adv-x="571" 
d="M80 0v504h124v-398h165v398h124v-398h37l-15 -220h-108v114h-327z" />
    <glyph glyph-name="uni0447" unicode="&#x447;" horiz-adv-x="576" 
d="M496 0h-124v147c-47 -41 -86 -55 -148 -55c-91 0 -154 53 -154 151v261h124v-216c0 -59 27 -84 72 -84c40 0 77 32 106 91v209h124v-504z" />
    <glyph glyph-name="uni0448" unicode="&#x448;" horiz-adv-x="830" 
d="M80 0v504h124v-398h149v398h124v-398h149v398h124v-504h-670z" />
    <glyph glyph-name="uni0449" unicode="&#x449;" horiz-adv-x="828" 
d="M80 0v504h124v-398h149v398h124v-398h149v398h124v-398h37l-15 -220h-108v114h-584z" />
    <glyph glyph-name="uni044A" unicode="&#x44a;" horiz-adv-x="550" 
d="M28 398v106h211v-192h92c108 0 174 -62 174 -156s-66 -156 -174 -156h-216v398h-87zM309 206h-70v-100h70c46 0 70 14 70 50s-24 50 -70 50z" />
    <glyph glyph-name="uni044C" unicode="&#x44c;" horiz-adv-x="515" 
d="M80 0v504h124v-192h92c108 0 174 -62 174 -156s-66 -156 -174 -156h-216zM274 206h-70v-100h70c46 0 70 14 70 50s-24 50 -70 50z" />
    <glyph glyph-name="uni044B" unicode="&#x44b;" horiz-adv-x="779" 
d="M80 0v504h124v-192h92c108 0 174 -62 174 -156s-66 -156 -174 -156h-216zM274 206h-70v-100h70c46 0 70 14 70 50s-24 50 -70 50zM575 504h124v-504h-124v504z" />
    <glyph glyph-name="uni044D" unicode="&#x44d;" horiz-adv-x="553" 
d="M158 203v98h216c-11 61 -55 105 -116 105c-56 0 -96 -29 -123 -77l-102 52c48 83 118 131 221 131c168 0 256 -118 256 -260s-88 -260 -256 -260c-103 0 -173 48 -221 131l102 52c27 -48 67 -77 123 -77c61 0 105 44 116 105h-216z" />
    <glyph glyph-name="uni044E" unicode="&#x44e;" horiz-adv-x="823" 
d="M80 0v504h124v-199h68c20 119 110 207 252 207c162 0 256 -114 256 -260s-94 -260 -256 -260c-142 0 -232 87 -252 207h-68v-199h-124zM398 252c0 -83 46 -154 126 -154s126 71 126 154s-46 154 -126 154s-126 -71 -126 -154z" />
    <glyph glyph-name="uni044F" unicode="&#x44f;" horiz-adv-x="490" 
d="M51 361c0 85 72 143 167 143h192v-504h-124v218h-14l-122 -218h-132l132 224c-60 18 -99 68 -99 137zM211 324h75v74h-75c-25 0 -40 -14 -40 -37s15 -37 40 -37z" />
    <glyph glyph-name="uni0400" unicode="&#x400;" horiz-adv-x="575" 
d="M90 700h433v-120h-303v-147h243v-120h-243v-193h313v-120h-443v700zM326 904l64 -148h-95l-137 148h168z" />
    <glyph glyph-name="uni0401" unicode="&#x401;" horiz-adv-x="575" 
d="M90 700h433v-120h-303v-147h243v-120h-243v-193h313v-120h-443v700zM139 847c0 41 29 71 71 71s71 -30 71 -71s-29 -71 -71 -71s-71 30 -71 71zM346 847c0 41 29 71 71 71s71 -30 71 -71s-29 -71 -71 -71s-71 30 -71 71z" />
    <glyph glyph-name="uni0402" unicode="&#x402;" horiz-adv-x="720" 
d="M8 580v120h518v-120h-194v-157c32 51 87 89 160 89c95 0 157 -49 157 -152v-98c0 -161 -70 -237 -211 -270l-30 109c73 18 117 52 117 146v69c0 61 -24 90 -75 90c-56 0 -118 -57 -118 -193v-213h-130v580h-194z" />
    <glyph glyph-name="uni0403" unicode="&#x403;" horiz-adv-x="530" 
d="M220 580v-580h-130v700h434v-120h-304zM218 756l64 148h168l-137 -148h-95z" />
    <glyph glyph-name="uni0404" unicode="&#x404;" horiz-adv-x="685" 
d="M500 410v-120h-316c18 -120 86 -178 179 -178c91 0 145 56 174 124l117 -32c-42 -126 -151 -212 -291 -212c-181 0 -315 124 -315 358s134 358 315 358c140 0 249 -86 291 -212l-117 -32c-29 68 -82 124 -174 124c-93 0 -161 -58 -179 -178h316z" />
    <glyph glyph-name="uni0405" unicode="&#x405;" horiz-adv-x="537" 
d="M470 581l-105 -67c-27 52 -56 74 -97 74c-38 0 -67 -27 -67 -64c0 -122 299 -106 299 -314c0 -137 -90 -218 -224 -218c-127 0 -219 89 -241 196l105 66c21 -75 63 -142 139 -142c54 0 91 27 91 91c0 116 -293 93 -293 315c0 106 81 190 191 190c93 0 164 -46 202 -127z
" />
    <glyph glyph-name="uni0406" unicode="&#x406;" horiz-adv-x="310" 
d="M220 700v-700h-130v700h130z" />
    <glyph glyph-name="uni0407" unicode="&#x407;" horiz-adv-x="310" 
d="M220 700v-700h-130v700h130zM-19 847c0 41 29 71 71 71s71 -30 71 -71s-29 -71 -71 -71s-71 30 -71 71zM188 847c0 41 29 71 71 71s71 -30 71 -71s-29 -71 -71 -71s-71 30 -71 71z" />
    <glyph glyph-name="uni0408" unicode="&#x408;" horiz-adv-x="515" 
d="M2 173l128 27c12 -62 42 -88 88 -88c55 0 93 27 93 120v468h130v-454c0 -189 -85 -254 -223 -254c-122 0 -202 68 -216 181z" />
    <glyph glyph-name="uni0409" unicode="&#x409;" horiz-adv-x="917" 
d="M101 200l37 500h375v-272h131c143 0 231 -75 231 -214s-88 -214 -231 -214h-261v576h-128l-28 -386c-9 -127 -86 -190 -220 -190v124c56 0 89 3 94 76zM632 308h-119v-188h119c81 0 113 34 113 94s-32 94 -113 94z" />
    <glyph glyph-name="uni040A" unicode="&#x40a;" horiz-adv-x="952" 
d="M418 428v272h130v-272h131c143 0 231 -75 231 -214s-88 -214 -231 -214h-261v308h-198v-308h-130v700h130v-272h198zM667 308h-119v-188h119c81 0 113 34 113 94s-32 94 -113 94z" />
    <glyph glyph-name="uni040B" unicode="&#x40b;" horiz-adv-x="721" 
d="M8 580v120h518v-120h-194v-157c32 51 87 89 160 89c95 0 157 -49 157 -152v-360h-124v316c0 61 -24 90 -75 90c-57 0 -118 -57 -118 -193v-213h-130v580h-194z" />
    <glyph glyph-name="uni040C" unicode="&#x40c;" horiz-adv-x="643" 
d="M90 700h130v-260l239 260h160l-284 -313l304 -387h-165l-254 334v-334h-130v700zM254 756l64 148h168l-137 -148h-95z" />
    <glyph glyph-name="uni040D" unicode="&#x40d;" horiz-adv-x="704" 
d="M90 700h130v-462l257 462h137v-700h-130v462l-257 -462h-137v700zM356 904l64 -148h-95l-137 148h168z" />
    <glyph glyph-name="uni040E" unicode="&#x40e;" horiz-adv-x="520" 
d="M-2 700h125l139 -337l136 337h124l-290 -708h-120l89 220zM136 896h91c0 -16 11 -28 27 -28s27 12 27 28h91c0 -58 -45 -109 -118 -109s-118 51 -118 109z" />
    <glyph glyph-name="uni040F" unicode="&#x40f;" horiz-adv-x="692" 
d="M90 0v700h130v-576h252v576h130v-700h-191v-124h-130v124h-191z" />
    <glyph glyph-name="uni0450" unicode="&#x450;" horiz-adv-x="556" 
d="M520 263v-51h-347c3 -56 42 -114 119 -114c57 0 92 26 122 78l100 -37c-39 -89 -107 -147 -229 -147c-173 0 -242 141 -242 260s69 260 242 260c168 0 235 -139 235 -249zM285 406c-63 0 -100 -48 -109 -96h217c-11 50 -42 96 -108 96zM288 708l64 -148h-95l-137 148h168
z" />
    <glyph glyph-name="uni0451" unicode="&#x451;" horiz-adv-x="556" 
d="M520 263v-51h-347c3 -56 42 -114 119 -114c57 0 92 26 122 78l100 -37c-39 -89 -107 -147 -229 -147c-173 0 -242 141 -242 260s69 260 242 260c168 0 235 -139 235 -249zM285 406c-63 0 -100 -48 -109 -96h217c-11 50 -42 96 -108 96zM111 651c0 41 29 71 71 71
s71 -30 71 -71s-29 -71 -71 -71s-71 30 -71 71zM318 651c0 41 29 71 71 71s71 -30 71 -71s-29 -71 -71 -71s-71 30 -71 71z" />
    <glyph glyph-name="uni0452" unicode="&#x452;" horiz-adv-x="593" 
d="M315 559h-111v-136c32 51 87 89 160 89c95 0 157 -49 157 -152v-302c0 -161 -70 -237 -211 -270l-30 109c73 18 117 52 117 146v273c0 61 -24 90 -75 90c-57 0 -118 -57 -118 -193v-213h-124v559h-72v92h72v57h124v-57h111v-92z" />
    <glyph glyph-name="uni0453" unicode="&#x453;" horiz-adv-x="431" 
d="M204 0h-124v504h341v-106h-217v-398zM165 560l64 148h168l-137 -148h-95z" />
    <glyph glyph-name="uni0454" unicode="&#x454;" horiz-adv-x="553" 
d="M395 301v-98h-216c11 -61 55 -105 116 -105c56 0 96 29 123 77l102 -52c-48 -83 -118 -131 -221 -131c-168 0 -256 118 -256 260s88 260 256 260c103 0 173 -48 221 -131l-102 -52c-27 48 -67 77 -123 77c-61 0 -105 -44 -116 -105h216z" />
    <glyph glyph-name="uni0455" unicode="&#x455;" horiz-adv-x="456" 
d="M231 512c68 0 127 -33 158 -82l-74 -68c-23 30 -56 44 -84 44c-24 0 -46 -14 -46 -42c0 -22 18 -38 48 -49c69 -25 182 -47 182 -155c0 -91 -70 -168 -179 -168c-105 0 -175 74 -200 136l99 53c18 -49 52 -83 101 -83c38 0 62 17 62 54c0 42 -65 51 -126 77
c-55 23 -102 58 -102 136s63 147 161 147z" />
    <glyph glyph-name="uni0456" unicode="&#x456;" horiz-adv-x="260" 
d="M50 649c0 45 34 80 80 80s80 -35 80 -80s-34 -80 -80 -80s-80 35 -80 80zM68 504h124v-504h-124v504z" />
    <glyph glyph-name="uni0457" unicode="&#x457;" horiz-adv-x="260" 
d="M68 504h124v-504h-124v504zM-44 651c0 41 29 71 71 71s71 -30 71 -71s-29 -71 -71 -71s-71 30 -71 71zM163 651c0 41 29 71 71 71s71 -30 71 -71s-29 -71 -71 -71s-71 30 -71 71z" />
    <glyph glyph-name="uni0458" unicode="&#x458;" horiz-adv-x="260" 
d="M68 504h124v-446c0 -161 -70 -237 -211 -270l-30 109c73 18 117 52 117 146v461zM50 649c0 45 34 80 80 80s80 -35 80 -80s-34 -80 -80 -80s-80 35 -80 80z" />
    <glyph glyph-name="uni0459" unicode="&#x459;" horiz-adv-x="795" 
d="M120 177l33 327h331v-192h92c108 0 174 -62 174 -156s-66 -156 -174 -156h-216v398h-92l-30 -266c-14 -122 -96 -132 -208 -132v106c58 0 85 18 90 71zM554 206h-70v-100h70c46 0 70 14 70 50s-24 50 -70 50z" />
    <glyph glyph-name="uni045A" unicode="&#x45a;" horiz-adv-x="817" 
d="M80 0v504h124v-192h178v192h124v-192h92c108 0 174 -62 174 -156s-66 -156 -174 -156h-216v206h-178v-206h-124zM576 206h-70v-100h70c46 0 70 14 70 50s-24 50 -70 50z" />
    <glyph glyph-name="uni045B" unicode="&#x45b;" horiz-adv-x="593" 
d="M8 559v92h72v57h124v-57h111v-92h-111v-136c32 51 87 89 160 89c95 0 157 -49 157 -152v-360h-124v316c0 61 -24 90 -75 90c-57 0 -118 -57 -118 -193v-213h-124v559h-72z" />
    <glyph glyph-name="uni045C" unicode="&#x45c;" horiz-adv-x="537" 
d="M80 504h124v-198l164 198h153l-202 -232l215 -272h-152l-178 238v-238h-124v504zM209 560l64 148h168l-137 -148h-95z" />
    <glyph glyph-name="uni045D" unicode="&#x45d;" horiz-adv-x="592" 
d="M80 504h124v-311l173 311h135v-504h-124v311l-173 -311h-135v504zM303 708l64 -148h-95l-137 148h168z" />
    <glyph glyph-name="uni045E" unicode="&#x45e;" horiz-adv-x="481" 
d="M3 504h125l117 -316l110 316h124l-260 -708h-120l87 236zM127 700h91c0 -16 11 -28 27 -28s27 12 27 28h91c0 -58 -45 -109 -118 -109s-118 51 -118 109z" />
    <glyph glyph-name="uni045F" unicode="&#x45f;" horiz-adv-x="574" 
d="M80 0v504h124v-398h166v398h124v-504h-145v-114h-124v114h-145z" />
    <glyph glyph-name="arrow.l" horiz-adv-x="661" 
d="M291 95l-255 255l255 255l71 -73l-127 -129h380v-106h-380l127 -129z" />
    <glyph glyph-name="arrow.r" horiz-adv-x="661" 
d="M615 350l-255 -255l-71 73l127 129h-380v106h380l-127 129l71 73z" />
    <glyph glyph-name="arrow.u" horiz-adv-x="650" 
d="M70 385l255 255l255 -255l-73 -71l-129 127v-381h-106v381l-129 -127z" />
    <glyph glyph-name="arrow.d" horiz-adv-x="650" 
d="M325 60l-255 255l73 71l129 -127v381h106v-381l129 127l73 -71z" />
    <glyph glyph-name="arrow.ul" horiz-adv-x="649" 
d="M98 213v361h361v-106h-181l268 -267l-75 -75l-267 268v-181h-106z" />
    <glyph glyph-name="arrow.ur" horiz-adv-x="649" 
d="M551 574v-361h-106v181l-267 -268l-75 75l268 267h-181v106h361z" />
    <glyph glyph-name="arrow.dl" horiz-adv-x="649" 
d="M98 126v361h106v-181l267 268l75 -75l-268 -267h181v-106h-361z" />
    <glyph glyph-name="arrow.dr" horiz-adv-x="649" 
d="M551 487v-361h-361v106h181l-268 267l75 75l267 -268v181h106z" />
    <glyph glyph-name="arrow.l.xl" horiz-adv-x="782" 
d="M291 95l-255 255l255 255l71 -73l-127 -129h501v-106h-501l127 -129z" />
    <glyph glyph-name="arrow.r.xl" horiz-adv-x="782" 
d="M746 350l-255 -255l-71 73l127 129h-501v106h501l-127 129l71 73z" />
    <glyph glyph-name="arrow.u.xl" horiz-adv-x="650" 
d="M70 445l255 255l255 -255l-73 -71l-129 127v-501h-106v501l-129 -127z" />
    <glyph glyph-name="arrow.d.xl" horiz-adv-x="650" 
d="M325 0l-255 255l73 71l129 -127v501h106v-501l129 127l73 -71z" />
    <glyph glyph-name="arrow.ul.xl" horiz-adv-x="733" 
d="M98 255v361h361v-106h-181l352 -351l-75 -75l-351 352v-181h-106z" />
    <glyph glyph-name="arrow.ur.xl" horiz-adv-x="733" 
d="M635 616v-361h-106v181l-351 -352l-75 75l352 351h-181v106h361z" />
    <glyph glyph-name="arrow.dl.xl" horiz-adv-x="733" 
d="M98 84v361h106v-181l351 352l75 -75l-352 -351h181v-106h-361z" />
    <glyph glyph-name="arrow.dr.xl" horiz-adv-x="733" 
d="M635 445v-361h-361v106h181l-352 351l75 75l351 -352v181h106z" />
    <glyph glyph-name="dcaron.alt" horiz-adv-x="814" 
d="M43 252c0 155 78 260 230 260c51 0 100 -26 122 -54v250h124v-708h-124v52c-14 -26 -60 -60 -122 -60c-152 0 -230 105 -230 260zM173 252c0 -100 52 -154 117 -154s116 54 116 154s-51 154 -116 154s-117 -54 -117 -154zM622 405l-28 36c41 34 71 65 74 112
c-42 16 -58 46 -58 76c0 47 34 79 83 79s81 -38 81 -85c0 -95 -65 -163 -152 -218z" />
    <glyph glyph-name="uni0123.alt" horiz-adv-x="515" 
d="M81 342c0 105 83 170 185 170c34 0 65 -8 93 -22l95 50l49 -82l-72 -36c13 -23 20 -50 20 -80c0 -106 -83 -168 -185 -168c-26 0 -51 4 -73 11c-15 -9 -24 -22 -24 -38c0 -24 17 -37 47 -37h103c106 0 177 -51 177 -148c0 -124 -117 -174 -229 -174
c-129 0 -228 56 -228 166c0 41 15 76 41 100c-16 19 -26 46 -26 78c0 48 25 84 62 106c-22 27 -35 62 -35 104zM291 6h-68c-21 0 -40 1 -58 4c-8 -12 -11 -27 -11 -46c0 -48 48 -72 113 -72c59 0 105 17 105 62c0 42 -34 52 -81 52zM197 342c0 -41 29 -68 69 -68
s69 27 69 68c0 42 -29 70 -69 70s-69 -28 -69 -70zM316 865l28 -36c-41 -34 -71 -65 -74 -112c42 -16 58 -46 58 -76c0 -47 -34 -79 -83 -79s-81 38 -81 85c0 95 65 163 152 218z" />
    <glyph glyph-name="lcaron.alt" horiz-adv-x="481" 
d="M78 708h124v-708h-124v708zM289 405l-28 36c41 34 71 65 74 112c-42 16 -58 46 -58 76c0 47 34 79 83 79s81 -38 81 -85c0 -95 -65 -163 -152 -218z" />
    <glyph glyph-name="napostrophe.alt" horiz-adv-x="777" 
d="M270 504h124v-81c37 53 91 89 156 89c90 0 155 -51 155 -152v-360h-124v323c0 60 -30 83 -72 83c-60 0 -115 -72 -115 -205v-201h-124v504zM91 405l-28 36c41 34 71 65 74 112c-42 16 -58 46 -58 76c0 47 34 79 83 79s81 -38 81 -85c0 -95 -65 -163 -152 -218z" />
    <glyph glyph-name="tcaron.alt" horiz-adv-x="609" 
d="M334 110l29 -100c-28 -13 -55 -18 -82 -18c-114 0 -185 61 -185 186v220h-78v106h78v126l124 78v-204h133v-106h-133v-218c0 -62 24 -82 66 -82c17 0 31 3 48 12zM430 405l-28 36c41 34 71 65 74 112c-42 16 -58 46 -58 76c0 47 34 79 83 79s81 -38 81 -85
c0 -95 -65 -163 -152 -218z" />
    <glyph glyph-name="nbspace" unicode="&#xa0;" horiz-adv-x="248" 
 />
    </font>
</defs>
</svg>
